<?xml version="1.0" encoding="utf-8"?>
<!-- Generator: Adobe Illustrator 27.0.0, SVG Export Plug-In . SVG Version: 6.00 Build 0)  -->
<svg version="1.1" xmlns="http://www.w3.org/2000/svg" xmlns:xlink="http://www.w3.org/1999/xlink" x="0px" y="0px"
	 viewBox="0 0 44 44" style="enable-background:new 0 0 44 44;" xml:space="preserve">
<style type="text/css">
	.st0{display:none;}
	.st1{display:inline;fill:#1D1D1B;}
	.st2{fill:#FFFFFF;fill-opacity:0.15;}
	.st3{fill:none;stroke:#FFFFFF;stroke-width:2;stroke-linecap:round;stroke-linejoin:round;}
</style>
<g id="Capa_2" class="st0">
	<rect x="-2.2" y="-1.8" class="st1" width="48.4" height="47.6"/>
</g>
<g id="Capa_1">
	<path class="st2" d="M22,0.4L22,0.4c11.9,0,21.6,9.7,21.6,21.6l0,0c0,11.9-9.7,21.6-21.6,21.6l0,0C10.1,43.6,0.4,33.9,0.4,22l0,0
		C0.4,10.1,10.1,0.4,22,0.4z"/>
	<path class="st3" d="M31.4,31.6v-2.4c0-1.2-0.5-2.4-1.4-3.3c-0.9-0.9-2.1-1.4-3.3-1.4h-9.4c-1.2,0-2.4,0.5-3.3,1.4
		c-0.9,0.9-1.4,2.1-1.4,3.3v2.4"/>
	<path class="st3" d="M22,19.8c2.6,0,4.7-2.1,4.7-4.7c0-2.6-2.1-4.7-4.7-4.7c-2.6,0-4.7,2.1-4.7,4.7C17.3,17.7,19.4,19.8,22,19.8z"
		/>
</g>
</svg>
