<svg xmlns="http://www.w3.org/2000/svg" xml:space="preserve" viewBox="0 0 469.3 469.4"><style>.st0{display:none}.st1{display:inline;fill:#26a8f7}.st2,.st3,.st4{display:inline;fill:#e8aa60}.st3,.st4{fill:#fff}.st4{fill:#4444ea}.st5{fill:#26a8f7}.st6{fill:#fff}.st7{display:inline;fill:#9daad1}.st10,.st8,.st9{display:inline;fill:#ffaff4}.st10,.st9{fill:#d7a570}.st10{fill:#fbfbfb}.st12,.st13,.st14{display:inline;fill:#c250fe}.st13,.st14{fill:#bfde76}.st14{fill:#ff9e7b}.st15,.st16,.st17{display:inline;fill:#01c78a}.st16,.st17{fill:#86f1fb}.st17{fill:#ea3838}</style><g id="ZB"><path d="M412.5 184.9c.4 22-4 43-11.4 63.6-6 16.6-14.6 31.6-25 45.7-11.2 15.3-22.5 30.5-33.6 45.8-22.9 31.4-45.7 62.8-68.5 94.3-4.6 6.4-8.8 13.1-13.6 19.4-13.8 18.1-38.4 18.1-51.7-.4-25.4-35.2-50.6-70.7-75.7-106.1-13.9-19.6-27.7-39.3-41.6-58.9-24.6-34.8-35.1-73.7-32.2-116 2.7-38.6 17.3-72.5 41.9-102.4C131.3 33.2 170.4 12.5 217 7.4 275.4 1 325.7 20 365.6 63.1c25.1 27.1 40.7 59.6 45.6 96.6.6 4.2 1 8.5 1.2 12.8.2 4.2.1 8.3.1 12.4m-177 83.4c43.9.1 80.3-39.6 79.8-80.7-.6-45-35.1-80.3-79.6-80.3-44.3 0-78.8 35.3-79.5 79.9-.7 41.4 35.9 81 79.3 81.1" class="st5"/><path d="M132.5 107.3h211v166.4h-211z" class="st5"/><path d="M188.9 123.2h-63.2c-7.3 0-11.1-3.8-11.1-11.1V96.3c0-6.2 4-10.1 10.3-10.1h108.7c6.1 0 10.1 3.9 10.2 10 .1 4 0 7.9 0 11.9 0 2.9-1.1 5.3-2.7 7.6-25.6 37.4-51.1 74.8-76.6 112.2-.6.9-1.3 1.9-2.2 3.3h71.5c7.5 0 11.2 3.7 11.2 11.2v15.8c0 6-4.1 10.1-10.1 10.1h-118c-6 0-10-4.1-10.1-10.1 0-3.5.1-7 0-10.5-.1-3.1.8-5.7 2.6-8.2 24.4-35.6 48.8-71.3 73.2-106.9 2-3 3.9-5.9 6.3-9.4M353.9 169.8c6.5 4.5 11.9 10 15.8 17 12.5 22.2 7 57.5-22.8 72.4-9.9 5-20.6 7.3-31.5 8.4-16.9 1.7-33.7 1-50.6-.9-6.8-.8-10-4.2-10-11.1V99.7c0-6.8 2.7-10.1 9.4-11.3 18.2-3.2 36.4-4.3 54.8-2.4 13.3 1.4 25.6 5.6 35.9 14.5 11.8 10.3 16.1 23.5 14.8 38.7-.9 11.6-6.2 21.2-14.6 29-.4.3-.7.7-1 1-.1.2-.1.3-.2.6m-58.7 62.8c7.6 1.2 19.6 0 26.3-2.5 8.6-3.3 12.9-9.4 13.1-18.5.2-8.5-4.1-14.8-12.3-18.4-8.7-3.7-17.8-3.5-27.1-3.3zm0-111.8v33.7c4.3 0 8.4.2 12.5 0 4.7-.2 9.2-1.2 13.4-3.5 6.7-3.7 9.2-9.6 8.3-17-.8-6.7-5.4-9.9-11.3-11.7-7.5-2.2-15.1-2-22.9-1.5" class="st6"/></g></svg>