<svg xmlns="http://www.w3.org/2000/svg" xml:space="preserve" viewBox="0 0 469.3 469.4"><style>.st0{display:none}.st1,.st2,.st3{display:inline;fill:#26a8f7}.st2,.st3{fill:#9daad1}.st3{fill:#fff}.st4,.st5,.st6{display:inline;fill:#ffaff4}.st5,.st6{fill:#d7a570}.st6{fill:#fbfbfb}.st8{fill:#26a8f7}.st9{fill:#fff}.st10,.st11,.st12{display:inline;fill:#c250fe}.st11,.st12{fill:#bfde76}.st12{fill:#ff9e7b}.st13,.st14,.st15{display:inline;fill:#01c78a}.st14,.st15{fill:#86f1fb}.st15{fill:#ea3838}</style><g id="L"><path d="M412.6 184.9c.4 22-4 43-11.4 63.6-6 16.6-14.6 31.6-25 45.7-11.2 15.3-22.5 30.5-33.6 45.8-22.9 31.4-45.7 62.8-68.5 94.3-4.6 6.4-8.8 13.1-13.6 19.4-13.8 18.1-38.4 18.1-51.7-.4-25.4-35.2-50.6-70.7-75.7-106.1-13.9-19.6-27.7-39.3-41.6-58.9-24.6-34.8-35.1-73.7-32.2-116 2.7-38.6 17.3-72.5 41.9-102.4 30.2-36.7 69.3-57.4 115.9-62.5C275.5 1 325.8 20 365.7 63.1c25.1 27.1 40.7 59.6 45.6 96.6.6 4.2 1 8.5 1.2 12.8.2 4.2.1 8.3.1 12.4m-177 83.4c43.9.1 80.3-39.6 79.8-80.7-.6-45-35.1-80.3-79.6-80.3-44.3 0-78.8 35.3-79.5 79.9-.7 41.4 35.9 81 79.3 81.1" class="st8"/><path d="M132.6 107.3h211v166.4h-211z" class="st8"/><path d="M236.4 239.1h72.8c8.8 0 13.6 4.8 13.6 13.7v19.6c-.1 7.6-5.1 12.7-12.7 12.7H198.9c-7.6 0-12.7-5.1-12.7-12.7V71.7c0-7.8 5-12.8 12.9-12.8h24.2c8.3 0 13.1 4.8 13.1 13.1v167.1" class="st9"/></g></svg>