<svg xmlns="http://www.w3.org/2000/svg" xml:space="preserve" viewBox="0 0 469.3 469.4"><style>.st0{display:none}.st1,.st2,.st3{display:inline;fill:#26a8f7}.st2,.st3{fill:#ffaff4}.st3{fill:#fff}.st4{fill:#ffaff4}.st5{fill:#fff}.st6,.st7,.st8{display:inline;fill:#d7a570}.st7,.st8{fill:#9daad1}.st8{fill:#fbfbfb}.st10,.st11,.st12{display:inline;fill:#c250fe}.st11,.st12{fill:#bfde76}.st12{fill:#ff9e7b}.st13,.st14,.st15{display:inline;fill:#01c78a}.st14,.st15{fill:#86f1fb}.st15{fill:#ea3838}</style><g id="H"><path d="M411.9 184.9c.4 22-4 43-11.4 63.6-6 16.6-14.6 31.6-25 45.7-11.2 15.3-22.5 30.5-33.6 45.8-22.9 31.4-45.7 62.8-68.5 94.3-4.6 6.4-8.8 13.1-13.6 19.4-13.8 18.1-38.4 18.1-51.7-.4-25.4-35.2-50.6-70.7-75.7-106.1-13.9-19.6-27.7-39.3-41.6-58.9-24.6-34.8-35.1-73.7-32.2-116 2.7-38.6 17.3-72.5 41.9-102.4 30.2-36.7 69.3-57.4 115.9-62.5C274.8 1 325.1 20 365 63.1c25.1 27.1 40.7 59.6 45.6 96.6.6 4.2 1 8.5 1.2 12.8.2 4.2.1 8.3.1 12.4m-177 83.4c43.9.1 80.3-39.6 79.8-80.7-.6-45-35.1-80.3-79.6-80.3-44.3 0-78.8 35.3-79.5 79.9-.7 41.4 35.9 81 79.3 81.1" class="st4"/><path d="M131.9 107.3h211v166.4h-211z" class="st4"/><path d="M198 158.7h74.7V87.5c0-9.9 4.5-14.4 14.4-14.4H311c7.8 0 12.9 5 12.9 12.8V290c0 7.8-5.1 12.7-13 12.8H286c-8.4 0-13.4-4.9-13.4-13.3v-78.9c0-4.1 0-4.1-4.2-4.1h-70.5v82.2c0 9.2-4.8 14-14 14h-24.2c-7.7 0-12.8-5-12.8-12.6V85.7c0-7.6 5.1-12.6 12.8-12.6h25.2c7.9 0 13 5.1 13 13.1V155c.1 1 .1 2.2.1 3.7" class="st5"/></g></svg>