<svg xmlns="http://www.w3.org/2000/svg" xml:space="preserve" id="Capa_1" x="0" y="0" version="1.1" viewBox="0 0 520 520"><style>.st7{fill:#e9e9f2}</style><path d="M252.2 511.6c-13.7-3.4-22.8-13.2-32.3-22.7-31.3-31.5-63.1-62.5-93.9-94.5-25-25.9-40.6-57.2-45.9-92.8-10.7-72.6 13.3-131.8 70.8-177.5.4-.3.7-.6 1.3-1.1.2-15.9 2.8-31.4 9.4-46 3.1-6.8 6.8-13.1 11.1-19.3 2.9-4.2 6.4-5.7 11.2-3.5 4.3 5.1 4.3 7.2.4 12.8-34.3 48.8-15.1 116.1 40 139.3 13.6 5.7 27.7 8.6 42.6 6.6 3.2.1 6.4-.3 9.6-.9 60.5-11.2 94.1-76.5 67-131.4-15.1-30.6-40-48.3-74.4-51.9-1.6-.2-3.1-.7-4.7-.7-21.1-.8-40.4 4.7-57.8 16.8-5.5 3.9-7.9 3.8-12.8-.4-2-4.5-.8-7.9 3.2-10.9 61.1-45.4 152.4-10.8 168 63.9 1.8 8.4 2.3 17 2.7 25.7 14.2 10.6 26.8 22.8 37.5 37 19.7 26 32 55.2 35.7 87.7 6.8 60.6-12 112.1-55 155-31.6 31.5-63.1 63-94.5 94.6-7 7.1-15.3 11.5-24.7 14.1-4.8.1-9.7.1-14.5.1m89.9-271.5c-6.4 1.4-8.1.6-11.5-5-4.6-7.6-9.2-15.2-14.7-22.6-2.2 1.3-4.2 2.5-6.3 3.7 7.6 18.3 12.2 37.1 12.5 56.7.1 7.3-1.1 8.9-8 11.2-5 1.7-9.5 4.1-12.8 8.3-4.8 6.1-3.1 11.9 4.1 14.5 5.5 1.9 11.2 1.8 16.8 1.2 14.1-1.5 23.9-11.2 25.2-24.6.6-6.7-1.2-13.2-3.3-19.5-1.6-4.8-.8-8.5 3.5-11.3 7-.3 8.5.7 10.6 7.2 4.7 14.1 6 28.1-1.2 41.6 1.5 1.6 2.7 2.8 3.9 4.2 6.6 7.4 9.9 15.9 8.3 25.9-2.8 16.9-15.2 27.3-32.5 27.3-37 .1-73.9.1-110.9.2-15.1-.1-30.2 0-45.2-.2-18.6-.2-33.1-18.1-30-36.4 1.4-8.4 5.8-15 12.2-20.6-4.8-9.5-6.1-19.3-4.3-29.7 1.9-10.6 5.7-20.5 10.3-30.1 6.4-13.3 14.4-25.6 22.9-38-19.8-16.7-32.3-37.7-37.6-63.1-1.1.7-1.6.9-2.1 1.3-44.7 39.2-64.5 88.4-58.6 147.5 3.5 35.2 17.3 66.3 41.3 92.2 17.8 19.3 36.8 37.5 55.3 56.1 16.7 16.8 33.4 33.6 50.2 50.2 11.1 11 26.5 12 37.5 1.6 12.3-11.5 23.8-23.8 35.7-35.8.5-.4 1.1-.7 1.5-1.2 21.3-21.3 42.8-42.5 63.9-64 28.4-28.8 44.9-63.5 48.2-103.9 3.6-45-8.7-85.5-37.2-120.7-7-8.6-14.7-16.7-24.2-23.8-2.5 12.9-6.9 24.4-13.3 35.1-6.4 10.8-14.6 20.1-24 28 5.1 8.2 10.1 15.9 14.9 23.8 3.5 5.9 3.3 7.7-1.1 12.7m-129.6 30.8c11.5 4.9 20.5 12 23.5 24.6h48c3.1-12.7 12.2-19.7 23.2-24.6 0-14.5-5.8-39.1-11.4-48.3-35.1 7.6-34.1 8.5-72.2 0-6.4 15.3-10.3 31.2-11.1 48.3m20.9 39.4c-11.4 17.3-43.2 16.2-60.8 3.1-6.6 4.7-9.1 11.8-6.9 19.1 2.1 7 8.7 11.7 16.6 11.8q38.4.15 76.8 0c10.2 0 17.5-7.1 17.6-16.7.1-9.7-7.1-17-17.2-17.2-8.7-.2-17.5-.1-26.1-.1m-29.5-97.7c-2.1 3-4.2 5.8-6.1 8.8-10 15.5-19.5 31.3-24 49.5-2.8 11.5-2.2 22.5 7.9 30.5 9.8 7.8 21.3 8.9 33.1 5.4 7.1-2.1 8.6-8.2 4-14.1-3.5-4.5-8.3-7.2-13.7-8.6-5.1-1.3-7.2-4.4-7.3-9.4-.1-6.2.5-12.3 1.4-18.4 1.9-13.8 5.9-27 11.2-40-2.3-1.3-4.2-2.4-6.5-3.7m82.9 131.7h50c1.1 0 2.3 0 3.4-.1 7-1 12.7-6.1 14.2-12.8 1.7-7.4-.9-13.7-7.3-18-19 12.9-39.9 13.3-58.4.6 4.1 10.5 3.5 20.3-1.9 30.3" style="fill:#0a0808"/><path d="M193.8 44.5c4.9 4.2 7.2 4.3 12.8.4 17.4-12.1 36.6-17.6 57.8-16.8 1.6.1 3.1.5 4.7.7-22.4 9.9-39.2 25.8-50.2 47.7-2.5 4.9-5.6 9.9-5.6 15.8-.7.3-1.6.5-2.1 1-3.7 3.8-7 3.9-11.2.3-2.9-2.4-6.5-1.4-9 1.6-2.5 2.9-2.6 6.2-.1 9.2 4.9 5.9 11.3 7.6 18.6 6.5-1.2 1.5-1 3.4-1 5.1-.1 7.6.4 15 1.8 22.5 5.5 29.8 21.7 52.1 47.1 68.2 3.2 2 7.2 2.9 9.6 6.3-14.8 2-29-.9-42.6-6.6-55.1-23.2-74.4-90.5-40-139.3 4-5.7 3.9-7.7-.4-12.8 3.7-2.8 6.9-6.1 9.8-9.8" style="fill:#eaeaf3"/><path d="M313.5 454.2c-11.9 12-23.4 24.2-35.7 35.8-11 10.3-26.4 9.3-37.5-1.6-16.8-16.7-33.5-33.4-50.2-50.2-18.5-18.6-37.5-36.8-55.3-56.1-23.9-26-37.8-57-41.3-92.2-5.9-59.2 13.9-108.4 58.6-147.5.5-.4 1.1-.7 2.1-1.3 5.3 25.4 17.8 46.4 37.6 63.1-8.5 12.3-16.5 24.7-22.9 38-4.6 9.6-8.4 19.5-10.3 30.1-1.9 10.4-.5 20.2 4.3 29.7-6.4 5.6-10.8 12.2-12.2 20.6-3.1 18.3 11.4 36.2 30 36.4 15.1.2 30.2.1 45.2.2 5 10.4 11.9 19.6 19.8 27.8 21.1 21.7 42.7 42.9 64.1 64.3 1.2.9 2.5 1.9 3.7 2.9" style="fill:#f2916e"/><path d="M313.5 454.2c-1.2-1.1-2.5-2-3.6-3.2-21.4-21.4-43-42.6-64.1-64.3-7.9-8.2-14.9-17.3-19.8-27.8 37-.1 73.9-.1 110.9-.2 17.2 0 29.7-10.4 32.5-27.3 1.6-9.9-1.7-18.5-8.3-25.9-1.2-1.3-2.4-2.6-3.9-4.2 7.2-13.5 5.8-27.5 1.2-41.6-2.1-6.5-3.6-7.5-10.6-7.2-1.8-4.2-3.7-8.4-5.5-12.6 4.3-5 4.6-6.8 1.1-12.5-4.8-7.9-9.8-15.6-14.9-23.8 9.4-8 17.6-17.3 24-28s10.8-22.3 13.3-35.1c9.5 7.1 17.2 15.1 24.2 23.8 28.5 35.2 40.9 75.7 37.2 120.7-3.3 40.3-19.7 75-48.2 103.9-21.2 21.5-42.6 42.7-63.9 64-.6.6-1.1.9-1.6 1.3" style="fill:#f4a281"/><path d="M213.3 92.3c.1-5.9 3.2-10.9 5.6-15.8 11-21.8 27.8-37.7 50.2-47.7 34.4 3.6 59.3 21.3 74.4 51.9 27.1 54.9-6.5 120.2-67 131.4-3.2.6-6.4 1-9.6.9-2.3-3.4-6.4-4.2-9.6-6.3-25.4-16.1-41.6-38.4-47.1-68.2-1.4-7.5-1.9-15-1.8-22.5 0-1.8-.2-3.6 1-5.1 2.7-.7 5.2-1.8 7.4-3.5 3-2.4 5.6-5 4.5-9.4-1.1-4.1-4.3-5.3-8-5.7m46.5 28.5c7.3 0 13.6-2.6 18.7-7.9 3.4-3.5 3.4-7.8.4-10.8-2.9-2.9-6.7-2.8-10.4.2-6.4 5.2-10.5 5.2-16.8.2-4-3.2-7.9-3.3-10.8-.2-3.1 3.2-2.7 7.5 1.1 11.2 4.9 4.8 10.9 7.3 17.8 7.3m54.9-9.7c5.6-.1 10.4-2.1 14.1-6.4 2.7-3.1 2.7-6.5.1-9.7-2.5-3.1-6.7-3.7-9.9-.9-3.2 2.7-5.7 2.9-8.9.1-3.3-2.9-6.9-2.4-9.9.7-2.7 2.8-2.6 6.9.3 10 3.8 4.2 8.6 6.2 14.2 6.2" style="fill:#f4f5f9"/><path d="M212.5 270.9c.8-17.1 4.7-33 11.1-48.2 38.1 8.5 37 7.7 72.2 0 5.6 9.3 11.4 33.8 11.4 48.3-11.1 4.8-20.2 11.8-23.2 24.6h-48c-3-12.7-12.1-19.7-23.5-24.7" style="fill:#d1d0e6"/><path d="M233.4 310.3c8.7 0 17.4-.1 26.2 0 10.1.2 17.3 7.5 17.2 17.2-.1 9.6-7.4 16.7-17.6 16.7q-38.4.15-76.8 0c-7.9 0-14.5-4.8-16.6-11.8-2.2-7.3.3-14.4 6.9-19.1 17.4 13.2 49.2 14.3 60.7-3" style="fill:#f3f3f8"/><path d="M342.1 240.1c1.8 4.2 3.7 8.4 5.5 12.6-4.4 2.8-5.1 6.6-3.5 11.3 2.1 6.3 3.9 12.7 3.3 19.5-1.3 13.5-11.1 23.1-25.2 24.6-5.6.6-11.3.8-16.8-1.2-7.2-2.6-8.9-8.4-4.1-14.5 3.3-4.2 7.9-6.6 12.8-8.3 6.9-2.4 8.1-3.9 8-11.2-.3-19.6-4.9-38.4-12.5-56.7 2.1-1.2 4.1-2.4 6.3-3.7 5.5 7.4 10.2 14.9 14.7 22.6 3.4 5.7 5.1 6.4 11.5 5M203.9 212.6c2.2 1.3 4.2 2.4 6.3 3.6-5.3 13-9.3 26.2-11.2 40-.8 6.1-1.5 12.2-1.4 18.4.1 5 2.2 8.1 7.3 9.4 5.4 1.4 10.2 4.1 13.7 8.6 4.6 5.9 3.1 12-4 14.1-11.8 3.5-23.3 2.4-33.1-5.4-10-8-10.7-19-7.9-30.5 4.5-18.2 13.9-34 24-49.5 2.1-2.9 4.2-5.7 6.3-8.7" class="st7"/><path d="M286.8 344.3c5.4-10 6-19.8 1.9-30.3 18.4 12.7 39.3 12.3 58.4-.6 6.4 4.2 9 10.6 7.3 18-1.5 6.7-7.2 11.8-14.2 12.8-1.1.2-2.3.1-3.4.1z" style="fill:#d0cfe5"/><path d="M213.3 92.3c3.8.4 6.9 1.6 8 5.8 1.1 4.4-1.5 7-4.5 9.4-2.2 1.7-4.7 2.7-7.4 3.5-7.3 1-13.7-.7-18.6-6.5-2.5-3-2.4-6.3.1-9.2s6.2-4 9-1.6c4.2 3.6 7.5 3.4 11.2-.3.5-.6 1.4-.8 2.2-1.1" style="fill:#101011"/><path d="M259.8 120.8c-7 0-12.9-2.5-17.9-7.4-3.8-3.7-4.1-7.9-1.1-11.2 2.9-3.1 6.8-3 10.8.2 6.3 5 10.4 5 16.8-.2 3.7-3 7.5-3.1 10.4-.2 3 3 3 7.3-.4 10.8-5 5.4-11.2 8.1-18.6 8" style="fill:#0f0f10"/><path d="M314.7 111.1c-5.6 0-10.4-1.9-14.3-6.1-2.9-3.1-3-7.3-.3-10 3-3.1 6.6-3.6 9.9-.7 3.2 2.8 5.7 2.6 8.9-.1s7.4-2.2 9.9.9c2.6 3.2 2.6 6.6-.1 9.7-3.6 4.1-8.3 6.2-14 6.3" style="fill:#0d0e0e"/></svg>