<svg xmlns="http://www.w3.org/2000/svg" xml:space="preserve" viewBox="0 0 520 520"><style>.st0{fill:#cdd2da}.st2{fill:#020303}.st3{fill:#e6e9ed}.st5{fill:#ea5666}.st7{display:inline;fill:#fbd1a7}.st11,.st8,.st9{display:inline;fill:#070504}.st11,.st9{fill:#0a0605}.st11{fill:#d84554}</style><g id="Capa_2"><path d="M102.2 100.4h338.9v314.9H102.2z" class="st0"/><path d="M259.1 10.5C395.8 10.7 509 120.9 509 260.7c0 138.5-111.4 250.1-250 250.1-140.1.1-250.6-113.6-250.4-251.1.3-137.1 112.9-249.2 250.5-249.2m113.7 210.8V217c-.2-9-4.1-13-12.9-13H135.3c-8.8 0-12.8 4.1-12.8 13v42.6c.1 40.6 16.1 73.7 47.4 99.5 1.3 1 3.4 1.7 3.2 4.2h-35.6c-9.7 0-14.8 3.8-15 11.2-.2 7.8 4.8 11.6 15.1 11.6h220.3c1.4 0 2.9 0 4.3-.1 5.9-.5 10.2-4.7 10.6-10.5.4-5.9-3.7-11.1-9.7-12.1-2.3-.4-4.7-.2-7.1-.2h-36.1c21.1-15.5 35.3-34.3 44.6-56.9 11.3 0 22.2.2 33.1-.1 19-.5 35.4-13.1 41.3-31.4 5.8-17.7 0-37.8-14.6-49.2-15.7-12.1-32.7-13.3-51.5-4.3M259 147c0-10.6-.4-21.3.1-31.9.4-8.4-5.9-13.5-11.4-13.5-6.2-.1-11.8 5.7-11.7 13.2.4 21.5.1 43 .2 64.5 0 8.5 4.1 13.2 11.2 13.3 7.4.1 11.5-4.7 11.6-13.7zm-79.7 17.2c0 5.4-.1 10.9 0 16.3.2 7.6 4.7 12.3 11.6 12.1 6.6-.1 11-4.7 11.1-12 .1-10.8.1-21.7 0-32.5-.1-7.5-5-12.5-11.6-12.3-6.4.2-10.9 5-11.1 12.2-.1 5.4 0 10.8 0 16.2m113.8.1c0 5.7-.1 11.3 0 17 .2 6.8 4.6 11.2 10.9 11.4 6.7.2 11.6-4.3 11.7-11.3.2-11.3.2-22.6 0-34-.1-6.9-5.3-11.8-11.7-11.6-6.2.2-10.8 4.9-11 11.5 0 5.6.1 11.3.1 17" class="st0"/><path d="M146.6 227.1c-.4.4-.8.7-1.2 1.1 0-1 .3-1.4 1.2-1.1" style="fill:#d84554"/></g><g id="Capa_1"><path d="M138.7 113.6c0-6.8-.1-13.4 0-19.9s3.7-10.2 10.2-10.2c28-.1 56-.2 84 .1 10.9.1 19.8 5.3 27.4 12.8 2.1-.1 2.9-1.8 4.2-2.8 7.9-6.6 16.9-10.1 27.3-10.1 26.5.1 53 0 79.5 0 8.2 0 11.6 3.3 11.7 11.4V114h19.1c7.7 0 11.4 3.5 11.4 11v201c0 8.3-3.7 11.9-12.1 11.9H120.2c-8.7 0-12.1-3.6-12.1-12.5V125.6c0-8.5 3.3-11.7 11.9-11.8h16.5c.5.2.9.1 2.2-.2M271 291.1c30.2-8.5 61.1-1.4 91.3-4.7V103.8h-68.2c-15 0-23.1 8.1-23.1 23.2v164.1m-20.7 1.2c.2-1.2.4-1.8.4-2.4 0-55.1.1-110.2 0-165.3 0-12.1-8.9-20.7-21-20.8-19.9-.1-39.8 0-59.8 0h-10.5V287c20.6 0 40.9.1 61.2 0 10.1 0 20.3-.4 29.7 5.3M128.9 134.6v182.6h118.4c-4.7-7.2-10.9-9.8-18.6-9.8h-77.6c-9.4 0-12.4-3-12.4-12.5V141.6c0-2.3.6-4.6-.7-7zm145.5 182.6h118.3V134.5c-3.4-.1-6.3-.5-9.7.4V295c0 9.4-3.1 12.4-12.6 12.4h-77.6c-7.6.1-13.8 2.6-18.4 9.8M260.4 419.4H121.7c-10.5 0-13.6-3.1-13.6-13.6 0-8.5-.1-17 0-25.4.1-8.1 3.6-11.9 11.5-11.9h282.5c7.5 0 11.3 3.9 11.4 11.3.1 9.1.1 18.2 0 27.4-.1 8.6-3.7 12.2-12.5 12.2zm-10.1-20.6c-4.9-7.7-11-10.4-19.8-10.2-31.6.6-63.1.2-94.7.3-2.3 0-4.6-.6-6.9.6v9.4c40.5-.1 80.7-.1 121.4-.1m142.6-9.5H271.1c5 6.3 9.9 10.2 18.8 10 32.2-.7 64.4-.3 96.6-.3 2.1 0 4.2.5 6.4-.5z" class="st2"/><path d="M271 291.1V127c0-15.1 8.1-23.2 23.1-23.2h68.2v182.6c-30.2 3.3-61.1-3.8-91.3 4.7" class="st3"/><path d="M250.3 292.3c-9.4-5.7-19.5-5.3-29.7-5.2-20.3.1-40.6 0-61.2 0V103.9h10.5c19.9 0 39.8-.1 59.8 0 12.1.1 21 8.7 21 20.8.1 55.1 0 110.2 0 165.3-.1.5-.2 1.1-.4 2.3" style="fill:#f5f6f8"/><path d="M128.9 134.6h9.1c1.2 2.4.6 4.8.7 7v153.3c0 9.5 3 12.5 12.4 12.5h77.6c7.6 0 13.8 2.6 18.6 9.8H128.9zM274.4 317.2c4.5-7.2 10.8-9.7 18.4-9.8h77.6c9.5 0 12.6-3 12.6-12.4V134.9c3.4-.9 6.4-.5 9.7-.4v182.7zM250.3 398.8H128.9v-9.4c2.3-1.1 4.7-.6 6.9-.6 31.6 0 63.1.3 94.7-.3 8.8 0 14.9 2.6 19.8 10.3" class="st5"/><path d="M392.9 389.3v9.2c-2.2 1.1-4.4.5-6.4.5-32.2 0-64.4-.4-96.6.3-8.9.2-13.8-3.7-18.8-10z" class="st3"/></g></svg>