<svg xmlns="http://www.w3.org/2000/svg" xml:space="preserve" viewBox="0 0 469.3 469.4"><style>.st0{display:none}.st1{display:inline;fill:#26a8f7}.st2{fill:#01c78a}.st3{fill:#fff}.st4{display:inline;fill:#86f1fb}.st5,.st6,.st8{display:inline;fill:#fff}.st6,.st8{fill:#ea3838}.st8{fill:#d7a570}</style><g id="Capa_7"><path d="M412.5 184.5c.4 22-4 43-11.4 63.6-6 16.6-14.6 31.6-25 45.7-11.2 15.3-22.5 30.5-33.6 45.8-22.9 31.4-45.7 62.8-68.5 94.3-4.6 6.4-8.8 13.1-13.6 19.4-13.8 18.1-38.4 18.1-51.7-.4-25.4-35.2-50.6-70.7-75.7-106.1-13.9-19.6-27.7-39.3-41.6-58.9-24.6-34.8-35.1-73.7-32.2-116 2.7-38.6 17.3-72.5 41.9-102.4C131.3 32.8 170.4 12.1 217 7 275.4.6 325.7 19.6 365.6 62.7c25.1 27.1 40.7 59.6 45.6 96.6.6 4.2 1 8.5 1.2 12.8.2 4.2.1 8.3.1 12.4m-177 83.4c43.9.1 80.3-39.6 79.8-80.7-.6-45-35.1-80.3-79.6-80.3-44.3 0-78.8 35.3-79.5 79.9-.7 41.4 35.9 81 79.3 81.1" class="st2"/><path d="M132.5 106.9h211v166.4h-211z" class="st2"/><path d="M172.5 275.2c-16.6-.2-32.4-3.3-46.8-11.8-17.7-10.4-29-25.9-34.4-45.5-6.5-23.6-5.8-47 4.4-69.5 11.8-25.8 32.3-41.1 59.9-46.8 18.5-3.8 36.9-2.9 55 3.2 2.1.7 4.1 1.6 6.1 2.6 3.9 2 5.7 6.2 4.5 10.4-1.5 5.5-3.1 11-4.8 16.4-1.8 5.6-7.4 7.7-13.1 5.3-14.3-6.1-29.1-7-44-2.7-15.5 4.5-25.3 15-29.9 30.2-4.2 13.9-4.3 28.1 0 42 5.3 17.2 17.2 27.2 34.9 30.2 13.7 2.3 27.1 1 40-4.4 5.6-2.3 11.1.4 12.7 6.2q2.1 7.5 3.9 15c1.2 4.8-.7 9-5.2 11.1-8.2 3.9-17 5.8-25.9 6.8-5.7.6-11.5.8-17.3 1.3M264.3 201.4v61.800000000000004c0 7.1-3.6 10.7-10.6 10.7h-18c-6 0-9.8-3.8-9.8-9.8V110.8c0-6.2 3.8-9.9 10-9.9h18.5c6.1 0 9.9 3.8 10 9.9v54.599999999999994h56.3v-53.800000000000004c0-7.3 3.4-10.8 10.7-10.8h18.3c5.8 0 9.6 3.8 9.6 9.5v154c0 5.7-3.9 9.5-9.6 9.5h-18c-7.6 0-10.9-3.4-10.9-11v-58.5c0-3 0-3-3-3h-50.4c-1 .1-1.9.1-3.1.1" class="st3"/></g></svg>