<svg xmlns="http://www.w3.org/2000/svg" xml:space="preserve" viewBox="0 0 469.3 469.4"><style>.st0{display:none}.st1{display:inline;fill:#26a8f7}.st2,.st3,.st4{display:inline;fill:#e8aa60}.st3,.st4{fill:#fff}.st4{fill:#4444ea}.st5{fill:#fbfbfb}.st6{fill:#26a8f7}.st7{fill:#fff}.st8{display:none;fill:#fbfbfb}.st9{display:inline;fill:#9daad1}.st10,.st11,.st12{display:inline;fill:#ffaff4}.st11,.st12{fill:#d7a570}.st12{fill:#fbfbfb}.st14,.st15,.st16{display:inline;fill:#c250fe}.st15,.st16{fill:#bfde76}.st16{fill:#ff9e7b}.st17,.st18,.st19{display:inline;fill:#01c78a}.st18,.st19{fill:#86f1fb}.st19{fill:#ea3838}</style><g id="J1"><path d="M411.6 183.9c.4 22-4 43-11.4 63.6-6 16.6-14.6 31.6-25 45.7-11.2 15.3-22.5 30.5-33.6 45.8-22.9 31.4-45.7 62.8-68.5 94.3-4.6 6.4-8.8 13.1-13.6 19.4-13.8 18.1-38.4 18.1-51.7-.4-25.4-35.2-50.6-70.7-75.7-106.1-13.9-19.6-27.7-39.3-41.6-58.9-24.6-34.8-35.1-73.7-32.2-116 2.7-38.6 17.3-72.5 41.9-102.4 30.2-36.7 69.3-57.4 115.9-62.5C274.5 0 324.8 19 364.7 62.1c25.1 27.1 40.7 59.6 45.6 96.6.6 4.2 1 8.5 1.2 12.8.2 4.2.1 8.3.1 12.4m-177 83.4c43.9.1 80.3-39.6 79.8-80.7-.6-45-35.1-80.3-79.6-80.3-44.3 0-78.8 35.3-79.5 79.9-.7 41.4 35.9 81 79.3 81.1" class="st6"/><path d="M131.6 104.6h211V271h-211z" class="st6"/><path d="M279.7 130.4c-4.8 2.7-9 5.1-13.3 7.5-7.4 4.1-14.1 1.1-16.2-7.4-1.4-5.8-2.9-11.6-4.1-17.4-1.1-4.9.8-9.4 5-11.8 12.2-7 24.5-13.9 36.8-20.6 1.5-.8 3.3-1.2 5-1.2q9.45-.15 18.9 0c6.1.1 10.4 4.5 10.6 10.9V92c0 57.3 0 114.7-.1 172 0 2.7-.8 5.6-2 7.9-1.7 3.2-4.8 4.6-8.3 4.6h-21.3c-6.8 0-11-4.4-11-11.6V130.4M214.4 154c0 20.6.2 41.2-.1 61.8-.1 9.8-2.3 19.4-6.2 28.5-6.4 15.1-17.4 25.2-33.2 29.9-16.7 4.9-33.5 4.3-50-1.3-5.6-1.9-8.2-6.4-7.2-12.1s2-11.4 3.1-17.1c1.4-7.6 7.3-11 14.6-8.5 7.1 2.5 14.4 3 21.8 2 5-.7 8.8-3.3 10.4-8 1.7-5.1 2.8-10.5 3.6-15.8.6-3.8.4-7.8.4-11.7V92.9c0-1.8 0-3.7.5-5.4 1.3-4.5 5.3-7.2 10.2-7.3h21c7.1 0 11.3 4.2 11.4 11.3.1 5.5 0 11.1 0 16.6v46c-.1-.1-.2-.1-.3-.1" class="st7"/></g></svg>