<svg xmlns="http://www.w3.org/2000/svg" xml:space="preserve" viewBox="0 0 469.3 469.4"><style>.st0{display:none}.st1{display:inline;fill:#26a8f7}.st2,.st3,.st4{display:inline;fill:#e8aa60}.st3,.st4{fill:#fff}.st4{fill:#4444ea}.st5{fill:#fbfbfb}.st6{fill:#26a8f7}.st7{display:none;fill:#fbfbfb}.st8{fill:#fff}.st10{display:inline;fill:#9daad1}.st11,.st12,.st13{display:inline;fill:#ffaff4}.st12,.st13{fill:#d7a570}.st13{fill:#fbfbfb}.st15,.st16,.st17{display:inline;fill:#c250fe}.st16,.st17{fill:#bfde76}.st17{fill:#ff9e7b}.st18,.st19,.st20{display:inline;fill:#01c78a}.st19,.st20{fill:#86f1fb}.st20{fill:#ea3838}</style><g id="Ñ"><path d="M412 183.9c.4 22-4 43-11.4 63.6-6 16.6-14.6 31.6-25 45.7-11.2 15.3-22.5 30.5-33.6 45.8-22.9 31.4-45.7 62.8-68.5 94.3-4.6 6.4-8.8 13.1-13.6 19.4-13.8 18.1-38.4 18.1-51.7-.4-25.4-35.2-50.6-70.7-75.7-106.1-13.9-19.6-27.7-39.3-41.6-58.9-24.6-34.8-35.1-73.7-32.2-116 2.7-38.6 17.3-72.5 41.9-102.4 30.2-36.7 69.3-57.4 115.9-62.5C274.9 0 325.2 19 365.1 62.1c25.1 27.1 40.7 59.6 45.6 96.6.6 4.2 1 8.5 1.2 12.8.2 4.2.1 8.3.1 12.4m-177 83.4c43.9.1 80.3-39.6 79.8-80.7-.6-45-35.1-80.3-79.6-80.3-44.3 0-78.8 35.3-79.5 79.9-.7 41.4 35.9 81 79.3 81.1" class="st6"/><path d="M132 104.6h211V271H132z" class="st6"/><path d="M196.4 185.4v2.5c0 36.1.1 72.2.1 108.2 0 8.6-4.4 13-13.1 13h-21.2c-7 0-11.6-4.6-11.9-11.6V108.2c0-1.8.1-3.7.5-5.4 1.3-4.7 5.6-8 10.7-8 9.1-.1 18.1 0 27.2 0 4.8 0 8 2.5 10.4 6.4 13.4 21.2 26.9 42.4 40.2 63.6l30 47.7c.3.5.7 1 1.5 2.3v-3.3c0-34.7-.1-69.3-.1-104 0-8.4 4.5-12.8 12.9-12.8h21.2c7.2 0 11.8 4.6 12 11.8.1 2.8 0 5.5 0 8.3 0 60.1 0 120.3-.1 180.4 0 2.5-.3 5.2-1.3 7.5-1.8 4.1-5.3 6.2-9.8 6.3q-12.75.15-25.5 0c-4.6 0-7.8-2.5-10.2-6.3-11.6-18.6-23.3-37.2-34.9-55.8-12.5-20.1-25-40.2-37.4-60.3-.3-.5-.6-.9-.9-1.4 0 .2-.2.2-.3.2" class="st8"/><path d="M175.7 87.2c-3.2-5 20.8-40.8 42.7-38.8 16.8 1.6 24.1 19.5 44 24.4C285 78.5 296 45 299.2 50c3 4.6-12.3 41.1-31.2 44.3-28.7 4.9-24.2-24.2-51.1-23.7-22.9.4-38.7 20.5-41.2 16.6" class="st8"/></g></svg>