<svg xmlns="http://www.w3.org/2000/svg" xml:space="preserve" viewBox="0 0 469.3 469.4"><style>.st1{fill:#26a8f7}.st1,.st2{display:inline}.st3{fill:#d7a570}.st5{fill:#fff}</style><g id="Capa_1"><path d="M412.2 184.5c.4 22-4 43-11.4 63.6-6 16.6-14.6 31.6-25 45.7-11.2 15.3-22.5 30.5-33.6 45.8-22.9 31.4-45.7 62.8-68.5 94.3-4.6 6.4-8.8 13.1-13.6 19.4-13.8 18.1-38.4 18.1-51.7-.4-25.4-35.2-50.6-70.7-75.7-106.1-13.9-19.6-27.7-39.3-41.6-58.9-24.6-34.8-35.1-73.7-32.2-116 2.7-38.6 17.3-72.5 41.9-102.4C131 32.8 170.1 12.1 216.7 7 275.1.6 325.4 19.6 365.3 62.7c25.1 27.1 40.7 59.6 45.6 96.6.6 4.2 1 8.5 1.2 12.8.2 4.2.1 8.3.1 12.4m-177 83.4c43.9.1 80.3-39.6 79.8-80.7-.6-45-35.1-80.3-79.6-80.3-44.3 0-78.8 35.3-79.5 79.9-.7 41.4 35.9 81 79.3 81.1" class="st3"/><path d="M132.2 106.9h211v166.4h-211z" class="st3"/></g><g id="Capa_2"><path d="M304.1 150.5c-4.8 2.7-9 5.1-13.3 7.5-7.4 4.1-14.1 1.1-16.2-7.4-1.4-5.8-2.9-11.6-4.1-17.4-1.1-4.9.8-9.4 5-11.8 12.2-7 24.5-13.9 36.8-20.6 1.5-.8 3.3-1.2 5-1.2q9.45-.15 18.9 0c6.1.1 10.4 4.5 10.6 10.9v1.6c0 57.3 0 114.7-.1 172 0 2.7-.8 5.6-2 7.9-1.7 3.2-4.8 4.6-8.3 4.6h-21.3c-6.8 0-11-4.4-11-11.6V150.5M208 165.6c0-17.5.3-34.9-.1-52.4-.2-10.2 5.5-14.1 13.6-13.6 6.2.4 12.5.1 18.7.1 6.9 0 11.2 4.2 11.2 11.1 0 34.8.1 69.7-.1 104.5-.1 16.9-3.3 33.2-11.9 48-10.4 18-26.4 28.2-46.6 31.8-15.1 2.7-30.2 2.3-44.9-2.8-20.1-7-32.6-21.5-39.5-41.2-4-11.4-5.7-23.1-5.8-35.1-.1-35.1-.1-70.2-.1-105.3 0-6.8 4.3-11 11-11h20.8c7.4 0 11.5 4.1 11.6 11.6v100.1c0 9.4.7 18.7 4 27.5 3.6 9.6 9.8 16.6 20.4 18.2 10.8 1.7 20.8.2 28.3-8.9 5.3-6.4 7.4-14.2 8.4-22.3.6-5.4.9-10.9.9-16.3.2-14.6.1-29.3.1-44" class="st5"/></g></svg>