<svg xmlns="http://www.w3.org/2000/svg" xml:space="preserve" viewBox="0 0 520 520"><path d="M264.7 45.9c37.4 0 74.8.6 112.1-.1 58.2-1.1 106.5 53.9 105.3 105.5-1 41.2.2 82.5-.3 123.7-.4 35.4-14.5 64.2-44.4 84.3-17.7 11.9-37.7 16.3-58.9 16.3-36.7-.1-73.4 0-110.1-.1-4.3 0-7.6 1.2-10.8 4-30.8 26.6-61.8 53.1-92.6 79.7-7.6 6.6-16.1 8.4-25.2 4.2-9.3-4.3-12.8-12.4-12.9-22.2-.1-16 0-32 0-48 0-5.9-.2-11.8.1-17.7.2-3.6-1-5.4-4.5-6.4-13.8-3.8-26.3-10.3-37.4-19.2-22.1-17.7-33.2-41.1-34.2-69.2-1.7-47.8-1.5-95.6-.1-143.4C52 93.5 87 54.5 131 47.5c7.3-1.2 14.7-1.7 22.1-1.7 37.2.1 74.4.1 111.6.1M151.2 437.7c2.7-.4 3.7-1.9 4.9-2.9 29.1-25 58.3-49.9 87.2-75.2 6.9-6 14.3-8.8 23.4-8.8 37 .1 74.1.1 111.1 0 5 0 10.2.1 15.1-.7 39.3-6.3 64.7-36 64.7-76 .1-41.9.1-83.8 0-125.8-.1-39.6-37.7-78.1-77.2-78.3q-115.65-.45-231.3 0c-44.1.3-74.5 34.7-74.6 74-.1 44.1-.8 88.2.2 132.3.7 30.8 14.9 52.5 42.8 65 9.5 4.3 19.6 7.1 29.5 10.2 3.3 1.1 4.4 2.6 4.3 6-.2 19.7-.1 39.4-.1 59.1z" style="fill:#504f9d"/><path d="M151.2 437.7v-21c0-19.7-.1-39.4.1-59.1 0-3.4-1-5-4.3-6-9.9-3.1-20-6-29.5-10.2-27.8-12.5-42.1-34.2-42.8-65-1-44.1-.3-88.2-.2-132.3.1-39.3 30.5-73.7 74.6-73.9q115.65-.45 231.3 0c39.5.2 77.1 38.7 77.2 78.3.1 41.9.1 83.8 0 125.8-.1 39.9-25.4 69.7-64.7 76-4.9.8-10.1.7-15.1.7-37 .1-74.1.1-111.1 0-9.1 0-16.5 2.8-23.4 8.8-28.9 25.2-58.1 50.2-87.2 75.2-1.2.8-2.2 2.3-4.9 2.7m113.4-174.3c2.6-6.5 4.8-12.6 7.6-18.5 1.4-2.9.5-4.5-1.5-6.5-5.7-5.7-11-11.8-16.8-17.5-2.9-2.9-3.1-4.8-.4-8.2 13.3-16.8 25.1-34.6 32.1-55.1.8-2.2 1.8-2.8 4-2.8 4.9.1 9.8.2 14.6-.1 6-.3 10.1-4.4 10.6-10.2.6-6.8-4.7-11.9-12.6-11.9-16.3-.1-32.7-.2-49 .1-4.1.1-5.1-1.3-4.9-5.1s.6-7.7-.4-11.6c-1.4-5.4-6.3-9-11.6-8.5-5.5.5-9.7 4.6-10 10.2-.2 3.2-.4 6.4 0 9.6.4 4.2-1 5.4-5.2 5.4-16.3-.2-32.7-.2-49-.1-8.3 0-13.4 5.6-12.3 13 .9 5.9 5.5 9.2 13.1 9.2 28.5 0 56.9.1 85.4 0 3.7 0 5.3.2 3.3 4.5-6.2 13.4-14.3 25.5-23.1 37.2-1.6 2.2-2.6 2-4-.2-5.3-7.8-10.8-15.4-16.3-23.1-1-1.4-1.8-3.2-4.1-3.2-7.8.1-15.7 0-23.5 0-.2 2.4 1.2 3.6 2.1 4.9 8.7 12.6 17.3 25.2 26.4 37.6 2.5 3.3 2.2 5.1-.6 7.8-7.7 7.6-14.9 15.5-22.6 23.1-6.1 6-12.6 11.7-18.7 17.7-3.6 3.5-4.3 8.8-2.1 13 2.3 4.3 7 6.5 11.9 5.7 2.8-.5 4.9-2.1 6.9-3.9 13.7-12.2 26.9-25 39.2-38.6 2.5-2.8 3.8-3 6.4 0 7.6 9 15.9 17.6 25.1 26.1m54.4-69.6c-7.3.3-12 4.2-14.7 10.9-11.7 28.9-23.4 57.9-35.1 86.8-2.9 7.3-.6 13.4 5.8 15.9 6.1 2.4 11.9-.4 14.8-7.4 2.7-6.5 5.4-13 7.9-19.6 1-2.6 2.3-3.5 5.1-3.5 11.3.2 22.5.2 33.8 0 3.1-.1 4.4 1.1 5.4 3.8 2.7 6.9 5.5 13.7 8.5 20.5 2.8 6.2 8.8 8.6 14.5 6.2s8.4-8.6 5.8-14.7q-18.3-44.7-36.9-89.4c-2.6-6.4-7.8-9.5-14.9-9.5" style="fill:#fefeff"/><path d="M264.6 263.4c-9.3-8.5-17.5-17.1-25.4-26.1-2.6-3-3.9-2.8-6.4 0-12.3 13.7-25.4 26.4-39.2 38.6-2 1.8-4.2 3.4-6.9 3.9-4.9.9-9.6-1.4-11.9-5.7-2.2-4.2-1.6-9.4 2.1-13 6.1-6 12.6-11.6 18.7-17.7 7.6-7.6 14.9-15.6 22.6-23.1 2.8-2.7 3-4.5.6-7.8-9.1-12.3-17.7-25-26.4-37.6-.9-1.3-2.3-2.5-2.1-4.9 7.9 0 15.7.1 23.5 0 2.4 0 3.1 1.7 4.1 3.2 5.5 7.7 10.9 15.4 16.3 23.1 1.5 2.1 2.4 2.3 4 .2 8.8-11.7 16.9-23.8 23.1-37.2 2-4.3.4-4.5-3.3-4.5-28.4.1-56.9.1-85.4 0-7.6 0-12.2-3.3-13.1-9.2-1.1-7.4 4-13 12.3-13 16.3-.1 32.7-.2 49 .1 4.3.1 5.6-1.2 5.2-5.4-.3-3.2-.2-6.4 0-9.6.4-5.6 4.5-9.7 10-10.2 5.3-.5 10.2 3.1 11.6 8.5 1 3.8.6 7.7.4 11.6s.8 5.2 4.9 5.1c16.3-.3 32.7-.2 49-.1 7.9 0 13.2 5.1 12.6 11.9-.5 5.7-4.6 9.9-10.6 10.2-4.9.2-9.8.2-14.6.1-2.1 0-3.2.6-4 2.8-7 20.5-18.8 38.3-32.1 55.1-2.7 3.4-2.5 5.3.4 8.2 5.7 5.7 11.1 11.7 16.8 17.5 2 2 2.9 3.6 1.5 6.5-2.4 5.9-4.7 12-7.3 18.5" style="fill:#5db246"/><path d="M319 193.8c7.1.1 12.3 3.2 14.9 9.5q18.6 44.55 36.9 89.4c2.5 6.2-.2 12.3-5.8 14.7-5.7 2.4-11.7-.1-14.5-6.2-3-6.7-5.8-13.6-8.5-20.5-1-2.7-2.3-3.9-5.4-3.8-11.3.2-22.5.2-33.8 0-2.8 0-4.2.8-5.1 3.5-2.4 6.6-5.2 13.1-7.9 19.6-2.9 7-8.7 9.8-14.8 7.4-6.4-2.5-8.7-8.6-5.8-15.9 11.7-29 23.4-57.9 35.1-86.8 2.7-6.8 7.5-10.7 14.7-10.9m-10.9 60.9h20c1.9 0 3-.4 2.1-2.5-3.4-8.2-6.8-16.4-10.7-25.7-4 10-7.6 18.8-11.4 28.2" style="fill:#5cb245"/><path d="M308.1 254.7c3.8-9.4 7.3-18.2 11.4-28.2 3.9 9.3 7.3 17.5 10.7 25.7.9 2.2-.2 2.6-2.1 2.5-6.3-.1-12.7 0-20 0" style="fill:#fcfefc"/></svg>