<svg xmlns="http://www.w3.org/2000/svg" xml:space="preserve" viewBox="0 0 469.3 469.4"><style>.st2{fill:#86f1fb}</style><g id="Capa_6"><path d="M411.5 184.5c.4 22-4 43-11.4 63.6-6 16.6-14.6 31.6-25 45.7-11.2 15.3-22.5 30.5-33.6 45.8-22.9 31.4-45.7 62.8-68.5 94.3-4.6 6.4-8.8 13.1-13.6 19.4-13.8 18.1-38.4 18.1-51.7-.4-25.4-35.2-50.6-70.7-75.7-106.1-13.9-19.6-27.7-39.3-41.6-58.9-24.6-34.8-35.1-73.7-32.2-116 2.7-38.6 17.3-72.5 41.9-102.4C130.3 32.8 169.4 12.1 216 7 274.4.6 324.7 19.6 364.6 62.7c25.1 27.1 40.7 59.6 45.6 96.6.6 4.2 1 8.5 1.2 12.8.2 4.2.1 8.3.1 12.4m-177 83.4c43.9.1 80.3-39.6 79.8-80.7-.6-45-35.1-80.3-79.6-80.3-44.3 0-78.8 35.3-79.5 79.9-.7 41.4 35.9 81 79.3 81.1" class="st2"/><path d="M131.5 106.9h211v166.4h-211z" class="st2"/><path d="M197.7 288.1c-19.1-.2-37.2-3.8-53.8-13.6-20.4-12-33.4-29.8-39.6-52.3-7.5-27.1-6.6-54 5.1-79.8 13.5-29.7 37.2-47.3 68.9-53.8 21.3-4.3 42.4-3.3 63.2 3.6 2.4.8 4.7 1.8 7 3 4.5 2.4 6.5 7.1 5.2 12-1.7 6.3-3.5 12.6-5.5 18.8-2.1 6.5-8.5 8.9-15.1 6.1-16.5-7-33.4-8.1-50.5-3.1-17.8 5.1-29.1 17.2-34.4 34.8-4.8 16-4.9 32.3 0 48.3 6.1 19.7 19.8 31.2 40.1 34.7 15.7 2.7 31.2 1.1 46-5.1 6.4-2.7 12.7.4 14.6 7.1 1.6 5.7 3.1 11.5 4.5 17.2 1.4 5.6-.8 10.3-6 12.8-9.4 4.5-19.5 6.6-29.8 7.8-6.6.7-13.3 1-19.9 1.5m98.9-148.9c-4.8 2.7-9 5.1-13.3 7.5-7.4 4.1-14.1 1.1-16.2-7.4-1.4-5.8-2.9-11.6-4.1-17.4-1.1-4.9.8-9.4 5-11.8 12.2-7 24.5-13.9 36.8-20.6 1.5-.8 3.3-1.2 5-1.2q9.45-.15 18.9 0c6.1.1 10.4 4.5 10.6 10.9v1.6c0 57.3 0 114.7-.1 172 0 2.7-.8 5.6-2 7.9-1.7 3.2-4.8 4.6-8.3 4.6h-21.3c-6.8 0-11-4.4-11-11.6z" style="fill:#fff"/></g></svg>