<svg xmlns="http://www.w3.org/2000/svg" xml:space="preserve" viewBox="0 0 469.3 469.4"><style>.st0{display:none}.st1,.st2{display:inline;fill:#26a8f7}.st2{fill:#e8aa60}.st3{fill:#fff}.st3,.st4{display:inline}.st4,.st5{fill:#4444ea}.st6{fill:#fff}.st7{display:inline;fill:#9daad1}.st10,.st8,.st9{display:inline;fill:#ffaff4}.st10,.st9{fill:#d7a570}.st10{fill:#fbfbfb}.st12,.st13,.st14{display:inline;fill:#c250fe}.st13,.st14{fill:#bfde76}.st14{fill:#ff9e7b}.st15,.st16,.st17{display:inline;fill:#01c78a}.st16,.st17{fill:#86f1fb}.st17{fill:#ea3838}</style><g id="M"><path d="M413 184.9c.4 22-4 43-11.4 63.6-6 16.6-14.6 31.6-25 45.7-11.2 15.3-22.5 30.5-33.6 45.8-22.9 31.4-45.7 62.8-68.5 94.3-4.6 6.4-8.8 13.1-13.6 19.4-13.8 18.1-38.4 18.1-51.7-.4-25.4-35.2-50.6-70.7-75.7-106.1-13.9-19.6-27.7-39.3-41.6-58.9-24.6-34.8-35.1-73.7-32.2-116 2.7-38.6 17.3-72.5 41.9-102.4 30.2-36.7 69.3-57.4 115.9-62.5C275.9 1 326.2 20 366.1 63.1c25.1 27.1 40.7 59.6 45.6 96.6.6 4.2 1 8.5 1.2 12.8.2 4.2.1 8.3.1 12.4m-177 83.4c43.9.1 80.3-39.6 79.8-80.7-.6-45-35.1-80.3-79.6-80.3-44.3 0-78.8 35.3-79.5 79.9-.7 41.4 35.9 81 79.3 81.1" class="st5"/><path d="M133 107.3h211v166.4H133z" class="st5"/><path d="M235.8 199.1c1.3-3.8 2.3-7.1 3.5-10.4 13-35.8 26.1-71.6 39.2-107.4 1.9-5.2 5.7-7.7 11.2-7.7h29.8c6.9 0 11.4 4.2 11.9 11.2.8 12.6 1.6 25.2 2.3 37.8 1.4 23 2.9 45.9 4.3 68.9 1.2 19.1 2.4 38.3 3.6 57.4.5 7.6 1 15.1 1.5 22.7.5 6.1-4.3 11.8-10.4 12-8.4.2-16.8.2-25.3 0-5.3-.1-9.8-4.1-10.3-9.7-.8-8.1-1.1-16.2-1.5-24.4-1.4-24.6-2.7-49.1-4.1-73.7-.1-.9-.2-1.8-.8-2.8-2.1 5.8-4.2 11.7-6.4 17.5-10.1 27.6-20.1 55.3-30.2 82.9-2.4 6.7-5.7 9-12.8 9h-15.4c-6.6 0-10.2-2.5-12.3-8.8-8.8-25.8-17.6-51.6-26.3-77.5-2.1-6.2-4.2-12.4-6.8-18.5-.4 5.7-.7 11.4-1.1 17.1-1.6 25.5-3.1 51-4.7 76.5-.6 8.7-4.6 12.4-13.3 12.4h-20.8c-7.3-.1-12.1-5.5-11.6-12.8 1.7-23.3 3.2-46.7 4.9-70 1.6-22.8 3.2-45.5 4.8-68.3 1.1-16.1 2.2-32.1 3.4-48.2.5-6.9 5-10.8 11.9-10.8h29.2c6.2 0 9.9 2.5 11.9 8.3L235 196.7c.1.7.4 1.3.8 2.4" class="st6"/></g></svg>