<svg xmlns="http://www.w3.org/2000/svg" xml:space="preserve" viewBox="0 0 469.3 469.4"><style>.st0{display:none}.st1{display:inline;fill:#26a8f7}.st2{fill:#e8aa60}.st3{fill:#fff}.st4,.st5{display:inline;fill:#9daad1}.st5{fill:#fff}.st6,.st7,.st8{display:inline;fill:#ffaff4}.st7,.st8{fill:#d7a570}.st8{fill:#fbfbfb}.st10,.st11,.st12{display:inline;fill:#c250fe}.st11,.st12{fill:#bfde76}.st12{fill:#ff9e7b}.st13,.st14,.st15{display:inline;fill:#01c78a}.st14,.st15{fill:#86f1fb}.st15{fill:#ea3838}</style><g id="J"><path d="M411.5 183.9c.4 22-4 43-11.4 63.6-6 16.6-14.6 31.6-25 45.7-11.2 15.3-22.5 30.5-33.6 45.8-22.9 31.4-45.7 62.8-68.5 94.3-4.6 6.4-8.8 13.1-13.6 19.4-13.8 18.1-38.4 18.1-51.7-.4-25.4-35.2-50.6-70.7-75.7-106.1-13.9-19.6-27.7-39.3-41.6-58.9-24.6-34.8-35.1-73.7-32.2-116 2.7-38.6 17.3-72.5 41.9-102.4C130.3 32.2 169.4 11.5 216 6.4 274.4 0 324.7 19 364.6 62.1c25.1 27.1 40.7 59.6 45.6 96.6.6 4.2 1 8.5 1.2 12.8.2 4.2.1 8.3.1 12.4m-177 83.4c43.9.1 80.3-39.6 79.8-80.7-.6-45-35.1-80.3-79.6-80.3-44.3 0-78.8 35.3-79.5 79.9-.7 41.4 35.9 81 79.3 81.1" class="st2"/><path d="M131.5 106.3h211v166.4h-211z" class="st2"/><path d="M277.2 141.4c0 23.8.2 47.5-.1 71.3-.2 11.3-2.7 22.4-7.1 32.8-7.4 17.4-20.1 29.1-38.2 34.4-19.3 5.7-38.6 5-57.7-1.5-6.5-2.2-9.5-7.3-8.4-14 1.1-6.6 2.4-13.1 3.6-19.7 1.6-8.7 8.5-12.7 16.9-9.8 8.2 2.8 16.6 3.4 25.1 2.3 5.7-.8 10.2-3.9 11.9-9.2 2-5.9 3.2-12.1 4.1-18.3.7-4.4.4-9 .4-13.5V70.7c0-2.1.1-4.2.6-6.2 1.4-5.1 6.1-8.3 11.8-8.4 8.1-.1 16.2 0 24.3 0s13.1 4.9 13.2 13c.1 6.4 0 12.8 0 19.2v53c-.1.1-.2.1-.4.1" class="st3"/></g></svg>