<svg xmlns="http://www.w3.org/2000/svg" xml:space="preserve" viewBox="0 0 469.3 469.4"><style>.st0{display:none}.st1{display:inline;fill:#26a8f7}.st2{fill:#d7a570}.st3{fill:#fff}.st4{display:inline;fill:#d7a570}.st5,.st6,.st7{display:inline;fill:#fff}.st6,.st7{fill:#9daad1}.st7{fill:#fbfbfb}.st10,.st11,.st9{display:inline;fill:#c250fe}.st10,.st11{fill:#bfde76}.st11{fill:#ff9e7b}.st12,.st13,.st14{display:inline;fill:#01c78a}.st13,.st14{fill:#86f1fb}.st14{fill:#ea3838}</style><g id="V"><path d="M412.5 184.5c.4 22-4 43-11.4 63.6-6 16.6-14.6 31.6-25 45.7-11.2 15.3-22.5 30.5-33.6 45.8-22.9 31.4-45.7 62.8-68.5 94.3-4.6 6.4-8.8 13.1-13.6 19.4-13.8 18.1-38.4 18.1-51.7-.4-25.4-35.2-50.6-70.7-75.7-106.1-13.9-19.6-27.7-39.3-41.6-58.9-24.6-34.8-35.1-73.7-32.2-116 2.7-38.6 17.3-72.5 41.9-102.4C131.3 32.8 170.4 12.1 217 7 275.4.6 325.7 19.6 365.6 62.7c25.1 27.1 40.7 59.6 45.6 96.6.6 4.2 1 8.5 1.2 12.8.2 4.2.1 8.3.1 12.4m-177 83.4c43.9.1 80.3-39.6 79.8-80.7-.6-45-35.1-80.3-79.6-80.3-44.3 0-78.8 35.3-79.5 79.9-.7 41.4 35.9 81 79.3 81.1" class="st2"/><path d="M132.5 106.9h211v166.4h-211z" class="st2"/><path d="M236.5 240.6c2.9-8.9 5.7-17.2 8.5-25.5 13-38.1 26-76.1 39-114.2 2.6-7.5 6.5-10.3 14.5-10.3h26.4c10.5 0 16.2 8.2 12.7 18.1-18 50.4-36 100.7-54 151-7 19.6-14 39.3-21.1 58.9-2.6 7.4-6.5 10.1-14.3 10.1h-27.4c-7.2 0-11.4-3-13.7-10-22.9-70.1-45.8-140.3-68.7-210.4-3.2-9.9 2.6-17.7 13-17.7h27c7.5 0 11.6 3 13.9 10.1 14.3 45.2 28.5 90.5 42.7 135.7.4 1.2.9 2.4 1.5 4.2" class="st3"/></g></svg>