<svg xmlns="http://www.w3.org/2000/svg" xml:space="preserve" viewBox="0 0 469.3 469.4"><style>.st0{display:none}.st1,.st2,.st3{display:inline;fill:#26a8f7}.st2,.st3{fill:#e8aa60}.st3{fill:#fff}.st4{fill:#4444ea}.st5{fill:#fff}.st6,.st7{display:inline;fill:#3636e0}.st7{fill:#9daad1}.st10,.st8,.st9{display:inline;fill:#ffaff4}.st10,.st9{fill:#d7a570}.st10{fill:#fbfbfb}.st12,.st13,.st14{display:inline;fill:#c250fe}.st13,.st14{fill:#bfde76}.st14{fill:#ff9e7b}.st15,.st16,.st17{display:inline;fill:#01c78a}.st16,.st17{fill:#86f1fb}.st17{fill:#ea3838}</style><g id="N"><path d="M412.6 184.9c.4 22-4 43-11.4 63.6-6 16.6-14.6 31.6-25 45.7-11.2 15.3-22.5 30.5-33.6 45.8-22.9 31.4-45.7 62.8-68.5 94.3-4.6 6.4-8.8 13.1-13.6 19.4-13.8 18.1-38.4 18.1-51.7-.4-25.4-35.2-50.6-70.7-75.7-106.1-13.9-19.6-27.7-39.3-41.6-58.9-24.6-34.8-35.1-73.7-32.2-116 2.7-38.6 17.3-72.5 41.9-102.4 30.2-36.7 69.3-57.4 115.9-62.5C275.5 1 325.8 20 365.7 63.1c25.1 27.1 40.7 59.6 45.6 96.6.6 4.2 1 8.5 1.2 12.8.2 4.2.1 8.3.1 12.4m-177 83.4c43.9.1 80.3-39.6 79.8-80.7-.6-45-35.1-80.3-79.6-80.3-44.3 0-78.8 35.3-79.5 79.9-.7 41.4 35.9 81 79.3 81.1" class="st4"/><path d="M132.6 107.3h211v166.4h-211z" class="st4"/><path d="M192.2 169.4v2.8c0 40.1.1 80.2.1 120.3 0 9.6-4.9 14.4-14.5 14.4h-23.6c-7.8 0-12.9-5.1-13.2-12.9V83.7c0-2 .1-4.1.6-6 1.5-5.3 6.3-8.8 11.9-8.9 10.1-.1 20.2 0 30.2 0 5.3 0 8.9 2.8 11.6 7.2 14.9 23.6 29.8 47.1 44.7 70.7l33.3 53.1c.4.6.8 1.1 1.7 2.5v-3.7c0-38.5-.1-77-.1-115.5 0-9.3 5-14.2 14.4-14.2h23.6c7.9 0 13.1 5.1 13.3 13.1.1 3.1 0 6.2 0 9.2 0 66.8 0 133.6-.1 200.5 0 2.8-.3 5.8-1.4 8.3-2 4.5-5.9 6.9-10.9 7-9.4.1-18.9.1-28.3 0-5.2 0-8.7-2.8-11.3-7-12.9-20.7-25.9-41.3-38.8-62-13.9-22.3-27.7-44.6-41.6-67-.3-.5-.7-1-1-1.6q-.3-.15-.6 0" class="st5"/></g></svg>