<svg xmlns="http://www.w3.org/2000/svg" xml:space="preserve" viewBox="0 0 469.3 469.4"><style>.st0{display:none}.st1,.st2,.st3{display:inline;fill:#26a8f7}.st2,.st3{fill:#ffaff4}.st3{fill:#fff}.st4{fill:#ffaff4}.st5{fill:#fff}.st6,.st7,.st8{display:inline;fill:#d7a570}.st7,.st8{fill:#9daad1}.st8{fill:#fbfbfb}.st10,.st11,.st12{display:inline;fill:#c250fe}.st11,.st12{fill:#bfde76}.st12{fill:#ff9e7b}.st13,.st14,.st15{display:inline;fill:#01c78a}.st14,.st15{fill:#86f1fb}.st15{fill:#ea3838}</style><g id="I"><path d="M413.1 184.5c.4 22-4 43-11.4 63.6-6 16.6-14.6 31.6-25 45.7-11.2 15.3-22.5 30.5-33.6 45.8-22.9 31.4-45.7 62.8-68.5 94.3-4.6 6.4-8.8 13.1-13.6 19.4-13.8 18.1-38.4 18.1-51.7-.4-25.4-35.2-50.6-70.7-75.7-106.1-13.9-19.6-27.7-39.3-41.6-58.9-24.6-34.8-35.1-73.7-32.2-116 2.7-38.6 17.3-72.5 41.9-102.4C131.9 32.8 171 12.1 217.6 7 276 .6 326.3 19.6 366.2 62.7c25.1 27.1 40.7 59.6 45.6 96.6.6 4.2 1 8.5 1.2 12.8.2 4.2.1 8.3.1 12.4m-177 83.4c43.9.1 80.3-39.6 79.8-80.7-.6-45-35.1-80.3-79.6-80.3-44.3 0-78.8 35.3-79.5 79.9-.7 41.4 35.9 81 79.3 81.1" class="st4"/><path d="M133.1 106.9h211v166.4h-211z" class="st4"/><path d="M261.6 190.7v100.7c0 7.1-3 12.8-9 13.2-11.1.8-22.2.7-33.3 0-4.9-.3-7.7-4.6-8.6-9.6-.2-1.2-.2-2.4-.2-3.7V89.7c0-7.3 3.1-12 9.1-13.6 1.4-.4 2.8-.4 4.2-.4H248c8.6 0 13.5 4.9 13.5 13.5.1 11 0 22.1 0 33.1.1 22.8.1 45.6.1 68.4" class="st5"/></g></svg>