<svg xmlns="http://www.w3.org/2000/svg" xml:space="preserve" viewBox="0 0 469.3 469.4"><style>.st0{display:none}.st1{display:inline;fill:#26a8f7}.st2{fill:#9daad1}.st3{fill:#fbfbfb}.st4{fill:#fff}.st5,.st6{display:inline;fill:#c250fe}.st6{fill:#fff}.st7,.st8,.st9{display:inline;fill:#bfde76}.st8,.st9{fill:#ff9e7b}.st9{fill:#01c78a}.st10,.st11,.st13{display:inline;fill:#86f1fb}.st11,.st13{fill:#ea3838}.st13{fill:#d7a570}</style><g id="Y"><path d="M412.5 184.9c.4 22-4 43-11.4 63.6-6 16.6-14.6 31.6-25 45.7-11.2 15.3-22.5 30.5-33.6 45.8-22.9 31.4-45.7 62.8-68.5 94.3-4.6 6.4-8.8 13.1-13.6 19.4-13.8 18.1-38.4 18.1-51.7-.4-25.4-35.2-50.6-70.7-75.7-106.1-13.9-19.6-27.7-39.3-41.6-58.9-24.6-34.8-35.1-73.7-32.2-116 2.7-38.6 17.3-72.5 41.9-102.4C131.3 33.2 170.4 12.5 217 7.4 275.4 1 325.7 20 365.6 63.1c25.1 27.1 40.7 59.6 45.6 96.6.6 4.2 1 8.5 1.2 12.8.2 4.2.1 8.3.1 12.4m-177 83.4c43.9.1 80.3-39.6 79.8-80.7-.6-45-35.1-80.3-79.6-80.3-44.3 0-78.8 35.3-79.5 79.9-.7 41.4 35.9 81 79.3 81.1" class="st2"/><path d="M132.5 107.3h211v166.4h-211z" class="st2"/><path d="M237.7 168.8c7.1-13.6 13.9-26.7 20.6-39.8 5.8-11.2 11.6-22.3 17.3-33.5 2.7-5.3 6.7-7.8 12.7-7.7 8.9.2 17.8 0 26.7 0 11.2 0 16.6 9.5 11 19.2-21 36.1-42.2 72.2-63.2 108.3-1 1.7-1.5 3.9-1.6 5.9-.1 25.8-.1 51.5-.1 77.3 0 6.9-3.1 11.4-8.7 13.1-.8.2-1.6.4-2.3.4-9.3 0-18.6.2-27.8 0-6.4-.1-11.1-5.4-11.2-12.1v-53c0-8.5.1-17-.1-25.5 0-2-.6-4.2-1.5-5.9-19.7-36.1-39.6-72.2-59.4-108.3-1.8-3.4-2.9-6.7-1.8-10.6 1.4-4.9 5.8-8.6 11-8.6 10.1-.1 20.2-.1 30.2 0 5.1.1 8.5 2.9 10.8 7.3 8 15.7 16 31.5 24 47.2 4.4 8.5 8.7 17.2 13.4 26.3" class="st3"/></g><g id="X"><path d="M412.5 184.9c.4 22-4 43-11.4 63.6-6 16.6-14.6 31.6-25 45.7-11.2 15.3-22.5 30.5-33.6 45.8-22.9 31.4-45.7 62.8-68.5 94.3-4.6 6.4-8.8 13.1-13.6 19.4-13.8 18.1-38.4 18.1-51.7-.4-25.4-35.2-50.6-70.7-75.7-106.1-13.9-19.6-27.7-39.3-41.6-58.9-24.6-34.8-35.1-73.7-32.2-116 2.7-38.6 17.3-72.5 41.9-102.4C131.3 33.2 170.4 12.5 217 7.4 275.4 1 325.7 20 365.6 63.1c25.1 27.1 40.7 59.6 45.6 96.6.6 4.2 1 8.5 1.2 12.8.2 4.2.1 8.3.1 12.4m-177 83.4c43.9.1 80.3-39.6 79.8-80.7-.6-45-35.1-80.3-79.6-80.3-44.3 0-78.8 35.3-79.5 79.9-.7 41.4 35.9 81 79.3 81.1" class="st2"/><path d="M132.5 107.3h211v166.4h-211z" class="st2"/><path d="M236.7 241.1c-11.3 19.5-22.2 38.4-33 57.2-1.5 2.5-2.9 5.1-4.4 7.6-2.5 4.3-6.4 6.4-11.5 6.4h-29.7c-11-.1-16.8-9.8-11.1-18.8 14.8-23.5 29.6-47 44.4-70.4 4.5-7.2 9-14.4 13.6-21.5 1.2-1.9 1.2-3.2 0-5.1-18.5-29.6-36.9-59.3-55.4-88.9-2-3.2-3-6.6-2.1-10.3 1.2-5.2 6.1-9 11.8-9 10.6-.1 21.3-.1 31.9 0 5.2 0 8.7 2.7 11.2 6.9l28.2 48c2.4 4.1 4.8 8.1 7.4 12.5.6-1 1.1-1.6 1.5-2.2 11.7-19.3 23.5-38.6 35.1-58 3-5 7.2-7.4 13.3-7.3 9.2.2 18.4.2 27.5 0 5.6-.1 10.1 1.5 12.9 6.3s1.5 9.3-1.4 13.8c-19 28.9-37.8 57.8-56.8 86.7-1.4 2.1-1.2 3.6 0 5.6 19.8 31.1 39.5 62.2 59.3 93.3 2.5 4 2.8 8.1.5 12.2-2.4 4.2-6.3 6.3-11.3 6.3-10 0-20-.1-30 0-5.7.1-9.7-2.3-12.5-6.9-10.2-16.9-20.5-33.8-30.8-50.7-2.6-4.4-5.4-8.7-8.6-13.7" class="st4"/></g></svg>