<?xml version="1.0" encoding="utf-8"?>
<!-- Generator: Adobe Illustrator 27.0.0, SVG Export Plug-In . SVG Version: 6.00 Build 0)  -->
<svg version="1.1" xmlns="http://www.w3.org/2000/svg" xmlns:xlink="http://www.w3.org/1999/xlink" x="0px" y="0px"
	 viewBox="0 0 520 520" style="enable-background:new 0 0 520 520;" xml:space="preserve">
<style type="text/css">
	.st0{fill:#5A5A5A;}
	.st1{fill:#FFFFFF;}
</style>
<g id="Capa_1">
</g>
<g id="Capa_2">
	<g id="Capa_3">
		<rect class="st0" width="520" height="520"/>
	</g>
	<g>
		<path class="st1" d="M39.1,83.9c-6.8-1.2-13.5-2.4-20.3-3.5C13.2,79.5,7.6,78.8,2,78c0-4.2,0-8.1,0-12.2
			C63.8,55.5,125.5,45.3,187.2,35c0.8,0.9,0.4,2,0.4,3c0,21.2-0.2,42.5,0.1,63.7c0.1,7.5-3.9,13.5-7.4,19.7c-2,3.5-1.3,5.9,2.2,7.7
			c9.2,4.5,22.3,5,29.6-2.2c1.5-1.5,1.7-2.7,0.7-4.3c-2.8-5-6.7-9.4-8-15c-0.1-0.7-0.4-1.3-0.4-2c0-23.9,0-47.8,0-71.7
			c0-0.5,0.1-0.9,0.2-1.6c7.7-1.3,15.3-2.8,22.9-3.9c8.2-1.2,16.3-2.5,24.4-4.1c7.5-1.5,15-0.5,22.4,0.8c12.3,2.2,24.5,4.2,36.8,6.3
			c10.9,1.9,21.8,3.8,32.8,5.6c10.4,1.7,20.9,3.3,31.3,5c13.5,2.2,27.1,4.5,40.6,6.7c11.2,1.9,22.5,3.7,33.7,5.7
			c14.7,2.5,29.4,5.2,44.2,7.6c8.4,1.4,16.8,2.5,25.3,3.7c0,4,0,7.9,0,12.3c-4.8,0.8-9.7,1.5-14.6,2.3c-10.4,1.7-20.9,3.3-31.3,5
			c-1.7,0.3-3.6-0.1-5.2,1c-12.4,1.9-24.8,3.8-37.3,5.6c-10.9,1.6-21.8,3.2-32.7,4.9c-9.9,1.5-19.9,3.1-29.8,4.7
			c-1.2,0.2-2.1,0.9-2.2,2.2c0,0.3,0,0.6,0,0.9c-0.2,18-0.5,36.1-0.6,54.1c0,4.4,2.7,7.9,4.6,11.7c5.9,11.6,10.9,23.5,12.8,36.1
			c1.7,11.8,1.5,23.6-1.4,35.3c-5.3,21.4-14.5,41.6-23.9,61.7c-13.4,28.6-29.9,55.6-49.3,81.1c-11.3,14.8-23.2,29.3-34.9,43.8
			c-3.8,4.8-8.1,9.2-12.5,14.1c-6.4-7.5-12.8-15-19.1-22.5c-10.9-13.1-21.3-26.4-31.2-40.1c-14.9-20.7-29.1-41.7-40.4-64.2
			c-9.4-18.8-18.1-37.8-24.8-57.5c-3.6-10.4-6.2-20.9-7.2-31.9c-1.5-16.9,2.9-32.6,9.9-47.9c2.2-4.7,4.5-9.4,6.6-14.1
			c2.1-4.7,1.8-9.5,1.6-14.5c-0.2-4.1-0.2-8.2-0.3-12.3c-0.3-9.6-0.1-19.3-0.1-28.9c0-7,0-7.1-7.3-8.2c-17.3-2.6-34.7-5-52-7.7
			c-15.5-2.4-31-5.1-46.5-7.6C46.4,84.6,42.7,84.3,39.1,83.9z M259.3,276.9c36.7,0.8,61.1-26.5,62.7-50.7
			c2.6-37.9-29.1-60.8-60.6-61.3c-36-0.5-61.8,25.7-63.5,52.8C195.8,252.5,228.5,277.9,259.3,276.9z"/>
		<path class="st1" d="M201.9,420.3c-7.2,2.7-13.8,5-20.2,7.7c-7.4,3.1-14.3,7-19.9,12.5c-11.6,11.5-8.3,21.9,3.2,30.5
			c14.2,10.5,31.3,14.7,48.9,17.7c11.2,1.9,22.4,2.9,33.7,3.7c8.8,0.6,17.7,0.8,26.5,0.3c25.6-1.3,50.8-4.7,74.1-15.3
			c6.7-3,12.4-7.2,17-12.7c6.2-7.6,3.9-16.1-2.5-22.6c-9.5-9.7-21.9-14.9-34.8-19.4c-1.8-0.6-3.7-1.3-5.3-2.5
			c6.3,1,12.6,1.8,18.8,3.1c12.5,2.7,24.7,6.4,36.1,11.8c10.5,5,20,11,26.3,20.6c4.9,7.4,2.6,13.8-2.5,20
			c-7.5,9.1-18.1,14.1-29.2,18.4c-16.6,6.5-34,10.5-51.6,13.4c-9.6,1.6-19.3,2.4-29,3.2c-11.8,1-23.6,1.3-35.4,1
			c-12.8-0.3-25.5-1.3-38.2-2.8c-20.1-2.3-39.8-6.4-58.9-12.5c-12.4-4-23.9-9.4-33.9-17.5c-9.9-8.2-7.4-23.5,0.1-30.9
			c11.3-11.1,26.1-16.4,41.5-20.5c10.5-2.8,21.3-4.8,31.9-7.1C199.2,420.1,200.1,420.3,201.9,420.3z"/>
		<path class="st1" d="M222.7,430c-5.9,2.6-12,4.5-17.4,7.9c-6.5,4.2-10.2,9.9-8.5,15.1c1.5,4.4,5.4,7.4,9.5,9.7
			c10.5,5.8,22.2,7.9,34.2,9.6c7.2,1,14.5,1.6,21.6,1.5c19.6-0.5,39.2-1.9,56.6-11.6c3.1-1.7,5.7-4,7.7-6.7c2.6-3.5,1.6-9-1.7-12.5
			c-6.1-6.3-14.1-9.9-22.5-12.7c-0.7-0.2-1.3-0.5-1.9-1c6.6,0.7,12.9,2.1,19.2,3.9c8.7,2.5,16.7,5.9,23.9,10.9
			c6.3,4.4,9.2,12.5,5.7,17.2c-3,4.2-7.2,7.3-12,9.7c-14.7,7.1-30.6,10.5-47,12.5c-12.2,1.5-24.4,2.2-36.5,1.6
			c-23-1.3-45.8-4.2-66.7-14.1c-4.7-2.2-9.3-4.8-11.6-9.4c-3.9-7.9,0.5-14.5,6.9-18.8c10.6-7.2,23.3-9.9,35.9-12.4
			C219.6,430,220.9,429.1,222.7,430z"/>
		<path class="st1" d="M283,434.9c8.7,1.1,16.6,3.4,23,8.3c5.5,4.3,5,9.2-1.1,12.9c-7.3,4.4-15.5,6.3-24,7.8
			c-9,1.6-18.2,1.5-27.2,1.1c-12.2-0.6-24.1-2.5-35-8c-2.3-1.2-3.7-3.2-5.6-4.5c-1.5-9.7,5.3-12.7,15.6-15.6c3.2-0.9,6.6-1.3,10-1.7
			c-3.8,1.3-7.5,2.9-10.6,5.3c-6.2,4.8-3.4,9.1,2,12.3c6,3.6,12.9,5,19.8,5.8c12,1.5,23.9,0.8,35.4-2.9c3-0.9,5.9-2.1,8.3-3.9
			c5.6-4.3,4.7-7.8-1.5-12.3C289.5,437.6,286.4,436.5,283,434.9z"/>
	</g>
</g>
</svg>
