<svg xmlns="http://www.w3.org/2000/svg" xml:space="preserve" viewBox="0 0 469.3 469.4"><style>.st0{display:none}.st1,.st2,.st3{display:inline;fill:#26a8f7}.st2,.st3{fill:#ffaff4}.st3{fill:#fff}.st4{fill:#ffaff4}.st5{fill:#fff}.st6,.st7,.st8{display:inline;fill:#d7a570}.st7,.st8{fill:#9daad1}.st8{fill:#fbfbfb}.st10,.st11,.st12{display:inline;fill:#c250fe}.st11,.st12{fill:#bfde76}.st12{fill:#ff9e7b}.st13,.st14,.st15{display:inline;fill:#01c78a}.st14,.st15{fill:#86f1fb}.st15{fill:#ea3838}</style><g id="Q"><path d="M412.9 184.5c.4 22-4 43-11.4 63.6-6 16.6-14.6 31.6-25 45.7-11.2 15.3-22.5 30.5-33.6 45.8-22.9 31.4-45.7 62.8-68.5 94.3-4.6 6.4-8.8 13.1-13.6 19.4-13.8 18.1-38.4 18.1-51.7-.4-25.4-35.2-50.6-70.7-75.7-106.1-13.9-19.6-27.7-39.3-41.6-58.9-24.6-34.8-35.1-73.7-32.2-116 2.7-38.6 17.3-72.5 41.9-102.4C131.7 32.8 170.8 12.1 217.4 7 275.8.6 326.1 19.6 366 62.7c25.1 27.1 40.7 59.6 45.6 96.6.6 4.2 1 8.5 1.2 12.8.2 4.2.1 8.3.1 12.4m-177 83.4c43.9.1 80.3-39.6 79.8-80.7-.6-45-35.1-80.3-79.6-80.3-44.3 0-78.8 35.3-79.5 79.9-.7 41.4 35.9 81 79.3 81.1" class="st4"/><path d="M132.9 106.9h211v166.4h-211z" class="st4"/><path d="M294.5 269.4c9 1.8 17.9 3.6 26.9 5.3 9.6 1.8 13.5 8.2 10.3 17.4-2.1 6.2-4.3 12.4-6.5 18.6-2.6 7.3-8.2 10.4-15.6 8.3-25.4-7.5-50.8-15.3-76.3-22.7-5.8-1.7-12-2.2-18-3.1-42.8-6.1-74.2-33.4-84.6-74.6-8.2-32.6-6.5-64.9 8.9-95.3 18.9-37.1 50.2-55.5 92.2-55.4 31.7.1 57.7 12.6 77 37.7 11.6 15.1 18.1 32.5 20.8 51.2 3.3 22.6 2 44.9-5.2 66.7-5.7 17.2-14.9 32.1-28.8 44.1-.5.4-1.2.7-1.8 1 .3.2.5.5.7.8m-13.9-88.6c-.1-12.1-1.8-23.5-6-34.4-4.6-12-11.5-22.3-23-29-16.4-9.5-45.8-9.1-61.8 16.1-8 12.6-11.4 26.5-12.3 41.2-1.1 17.7 1.4 34.7 10.4 50.4 11.4 19.8 31.1 28.5 52.7 23 14.4-3.7 23.9-13.2 30.5-25.9 6.9-13.1 9.2-27.3 9.5-41.4" class="st5"/></g></svg>