<svg xmlns="http://www.w3.org/2000/svg" xml:space="preserve" viewBox="0 0 469.3 469.4"><style>.st0{display:none}.st1{display:inline;fill:#26a8f7}.st2{fill:#9daad1}.st3{fill:#fff}.st4,.st5{display:inline;fill:#ffaff4}.st5{fill:#fff}.st6,.st7,.st8{display:inline;fill:#d7a570}.st7,.st8{fill:#9daad1}.st8{fill:#fbfbfb}.st10,.st11,.st12{display:inline;fill:#c250fe}.st11,.st12{fill:#bfde76}.st12{fill:#ff9e7b}.st13,.st14,.st15{display:inline;fill:#01c78a}.st14,.st15{fill:#86f1fb}.st15{fill:#ea3838}</style><g id="G"><path d="M412.6 184.9c.4 22-4 43-11.4 63.6-6 16.6-14.6 31.6-25 45.7-11.2 15.3-22.5 30.5-33.6 45.8-22.9 31.4-45.7 62.8-68.5 94.3-4.6 6.4-8.8 13.1-13.6 19.4-13.8 18.1-38.4 18.1-51.7-.4-25.4-35.2-50.6-70.7-75.7-106.1-13.9-19.6-27.7-39.3-41.6-58.9-24.6-34.8-35.1-73.7-32.2-116 2.7-38.6 17.3-72.5 41.9-102.4 30.2-36.7 69.3-57.4 115.9-62.5C275.5 1 325.8 20 365.7 63.1c25.1 27.1 40.7 59.6 45.6 96.6.6 4.2 1 8.5 1.2 12.8.2 4.2.1 8.3.1 12.4m-177 83.4c43.9.1 80.3-39.6 79.8-80.7-.6-45-35.1-80.3-79.6-80.3-44.3 0-78.8 35.3-79.5 79.9-.7 41.4 35.9 81 79.3 81.1" class="st2"/><path d="M132.6 107.3h211v166.4h-211z" class="st2"/><path d="M268.3 244.9V207h-27.9c-8 0-12.9-4.8-12.9-12.5v-18.6c0-7.2 4.7-12.1 12.1-12.2 22.1-.1 44.2-.1 66.4 0 7.4 0 12.1 5 12.1 12.1v92.3c0 5.7-2.6 9.8-7.8 11.6-30.9 10.5-62.7 14.9-95.1 8.9-44.1-8.2-72.1-33.8-82.7-75.9-7.3-29.1-5.2-57.7 8.7-84.8 13.8-26.7 36.2-43.9 65.5-52.5 31.1-9.1 62.2-8.3 93 1.7 1.9.6 3.7 1.4 5.5 2.3 5.4 2.6 8 8 6.4 13.6-1.9 6.6-4 13.2-6 19.8-2.5 8-9.5 11.1-17.5 7.9-18.9-7.6-38.4-8.9-58.2-5-27.3 5.3-45.3 24.6-48.7 51.4-1.9 15.2-1.2 30.3 4.9 44.6 8.4 19.8 24 30.8 45.5 34.3 12.1 1.9 28 1.3 36.7-1.1" class="st3"/></g></svg>