<svg xmlns="http://www.w3.org/2000/svg" xml:space="preserve" viewBox="0 0 469.3 469.4"><style>.st0{display:none}.st1{display:inline;fill:#26a8f7}.st2,.st3,.st4{display:inline;fill:#9daad1}.st3,.st4{fill:#fbfbfb}.st4{fill:#fff}.st5{fill:#9daad1}.st7{display:inline;fill:#c250fe}.st10,.st8,.st9{display:inline;fill:#bfde76}.st10,.st9{fill:#ff9e7b}.st10{fill:#01c78a}.st11,.st12,.st13{display:inline;fill:#86f1fb}.st12,.st13{fill:#ea3838}.st13{fill:#d7a570}.st16{fill:#fff}</style><g id="S"><path d="M412.5 184.9c.4 22-4 43-11.4 63.6-6 16.6-14.6 31.6-25 45.7-11.2 15.3-22.5 30.5-33.6 45.8-22.9 31.4-45.7 62.8-68.5 94.3-4.6 6.4-8.8 13.1-13.6 19.4-13.8 18.1-38.4 18.1-51.7-.4-25.4-35.2-50.6-70.7-75.7-106.1-13.9-19.6-27.7-39.3-41.6-58.9-24.6-34.8-35.1-73.7-32.2-116 2.7-38.6 17.3-72.5 41.9-102.4C131.3 33.2 170.4 12.5 217 7.4 275.4 1 325.7 20 365.6 63.1c25.1 27.1 40.7 59.6 45.6 96.6.6 4.2 1 8.5 1.2 12.8.2 4.2.1 8.3.1 12.4m-177 83.4c43.9.1 80.3-39.6 79.8-80.7-.6-45-35.1-80.3-79.6-80.3-44.3 0-78.8 35.3-79.5 79.9-.7 41.4 35.9 81 79.3 81.1" class="st5"/><path d="M132.5 107.3h211v166.4h-211z" class="st5"/><path d="M224.9 329.1c-20.9-.3-41-3.9-59.9-13.2-2.3-1.1-4.5-2.4-6.6-3.7-5.2-3.5-7.4-9.2-5.7-15.3 2.4-8.4 4.8-16.7 7.5-25 2.9-8.9 12.1-12.6 20.2-7.9 11 6.3 22.6 10.5 35.2 12.2 9.3 1.3 18.5 1.3 27.6-1.6 9.3-3 15.9-8.6 17.5-18.7 1.6-10.3-1.2-19.3-10.2-24.8-8.1-5-16.8-9.3-25.7-12.9-13.5-5.5-26.7-11.5-38.6-20.2-44.2-32.1-37.7-99.2 12.9-123.6 18.8-9.1 38.6-11.2 59-9.5 14.9 1.2 29.2 4.5 42.5 11.4 8.3 4.3 10.7 10.4 7.8 19.1-2.4 7.3-4.9 14.6-7.4 21.8-3.2 9.2-11.6 12.6-20.4 8.2-15-7.5-30.7-10.8-47.3-7.8-3.3.6-6.7 1.9-9.6 3.6-11.3 6.7-12.8 22.3-3 31.2 7.3 6.6 16.3 10.1 25.1 14 11.5 5.2 23.2 9.9 34.1 16.1 19.4 11.1 33 27.3 37.4 49.9 8.3 42-14.9 79.6-56.1 91.7-11.8 3.5-23.9 5-36.3 5" style="fill:#fefefe"/></g></svg>