<svg xmlns="http://www.w3.org/2000/svg" xml:space="preserve" viewBox="0 0 469.3 469.4"><style>.st0{display:none}.st1{display:inline;fill:#26a8f7}.st2,.st3,.st4{display:inline;fill:#e8aa60}.st3,.st4{fill:#fff}.st4{fill:#4444ea}.st5{fill:#fbfbfb}.st6{fill:#26a8f7}.st7{display:none;fill:#fbfbfb}.st8{fill:#fff}.st9{display:inline;fill:#9daad1}.st10,.st11,.st12{display:inline;fill:#ffaff4}.st11,.st12{fill:#d7a570}.st12{fill:#fbfbfb}.st14,.st15,.st16{display:inline;fill:#c250fe}.st15,.st16{fill:#bfde76}.st16{fill:#ff9e7b}.st17,.st18,.st19{display:inline;fill:#01c78a}.st18,.st19{fill:#86f1fb}.st19{fill:#ea3838}</style><g id="LL"><path d="M412.4 183.9c.4 22-4 43-11.4 63.6-6 16.6-14.6 31.6-25 45.7-11.2 15.3-22.5 30.5-33.6 45.8-22.9 31.4-45.7 62.8-68.5 94.3-4.6 6.4-8.8 13.1-13.6 19.4-13.8 18.1-38.4 18.1-51.7-.4-25.4-35.2-50.6-70.7-75.7-106.1-13.9-19.6-27.7-39.3-41.6-58.9-24.6-34.8-35.1-73.7-32.2-116 2.7-38.6 17.3-72.5 41.9-102.4 30.2-36.7 69.3-57.4 115.9-62.5C275.3 0 325.6 19 365.5 62.1c25.1 27.1 40.7 59.6 45.6 96.6.6 4.2 1 8.5 1.2 12.8.2 4.2.1 8.3.1 12.4m-177 83.4c43.9.1 80.3-39.6 79.8-80.7-.6-45-35.1-80.3-79.6-80.3-44.3 0-78.8 35.3-79.5 79.9-.7 41.4 35.9 81 79.3 81.1" class="st6"/><path d="M132.4 104.6h211l-19 166.4h-192z" class="st6"/><path d="M286 236.4h42.9c7.5 0 11.5 4.1 11.6 11.6v16.7c0 6.5-4.3 10.8-10.8 10.8h-75.5c-6.5 0-10.8-4.3-10.8-10.8V94.1c0-6.6 4.3-10.8 11-10.9H275c7 0 11.2 4.1 11.2 11.2v138.2c-.2 1.2-.2 2.3-.2 3.8M172.8 236.4h42.9c7.5 0 11.5 4.1 11.6 11.6v16.7c0 6.5-4.3 10.8-10.8 10.8H141c-6.5 0-10.8-4.3-10.8-10.8V94.1c0-6.6 4.3-10.8 11-10.9h20.6c7 0 11.2 4.1 11.2 11.2v138.2c-.2 1.2-.2 2.3-.2 3.8" class="st8"/></g></svg>