<svg xmlns="http://www.w3.org/2000/svg" xml:space="preserve" viewBox="0 0 469.3 469.4"><style>.st0{display:none}.st1{display:inline;fill:#26a8f7}.st2{fill:#ff9e7b}.st3{fill:#fff}.st4,.st5{display:inline;fill:#01c78a}.st5{fill:#fff}.st6,.st7,.st9{display:inline;fill:#86f1fb}.st7,.st9{fill:#ea3838}.st9{fill:#d7a570}</style><g id="Capa_8"><path d="M412.3 184.9c.4 22-4 43-11.4 63.6-6 16.6-14.6 31.6-25 45.7-11.2 15.3-22.5 30.5-33.6 45.8-22.9 31.4-45.7 62.8-68.5 94.3-4.6 6.4-8.8 13.1-13.6 19.4-13.8 18.1-38.4 18.1-51.7-.4-25.4-35.2-50.6-70.7-75.7-106.1-13.9-19.6-27.7-39.3-41.6-58.9-24.6-34.8-35.1-73.7-32.2-116 2.7-38.6 17.3-72.5 41.9-102.4 30.2-36.7 69.3-57.4 115.9-62.5C275.2 1 325.5 20 365.4 63.1c25.1 27.1 40.7 59.6 45.6 96.6.6 4.2 1 8.5 1.2 12.8.2 4.2.1 8.3.1 12.4m-177 83.4c43.9.1 80.3-39.6 79.8-80.7-.6-45-35.1-80.3-79.6-80.3-44.3 0-78.8 35.3-79.5 79.9-.7 41.4 35.9 81 79.3 81.1" class="st2"/><path d="M132.3 107.3h211v166.4h-211z" class="st2"/><path d="M253.7 124.1H176c-9 0-13.6-4.6-13.6-13.6V91c.1-7.6 5-12.5 12.6-12.5h133.8c7.5 0 12.4 4.8 12.6 12.3.1 4.9 0 9.8 0 14.7 0 3.6-1.4 6.5-3.4 9.4-31.5 46-62.9 92.1-94.3 138.1-.8 1.1-1.5 2.3-2.7 4h88c9.2 0 13.8 4.6 13.8 13.7v19.5c-.1 7.4-5.1 12.4-12.5 12.4H165.1c-7.4 0-12.3-5.1-12.4-12.5 0-4.3.1-8.6 0-12.9-.1-3.8 1-7 3.1-10.1 30-43.9 60-87.7 90-131.6 2.6-3.6 5.1-7.2 7.9-11.4" class="st3"/></g></svg>