<svg xmlns="http://www.w3.org/2000/svg" xml:space="preserve" viewBox="0 0 469.3 469.4"><style>.st0{display:none}.st1,.st2,.st3{display:inline;fill:#26a8f7}.st2,.st3{fill:#ffaff4}.st3{fill:#fff}.st4{fill:#ffaff4}.st5{fill:#fff}.st6,.st7,.st8{display:inline;fill:#d7a570}.st7,.st8{fill:#9daad1}.st8{fill:#fbfbfb}.st10,.st11,.st12{display:inline;fill:#c250fe}.st11,.st12{fill:#bfde76}.st12{fill:#ff9e7b}.st13,.st14,.st15{display:inline;fill:#01c78a}.st14,.st15{fill:#86f1fb}.st15{fill:#ea3838}</style><g id="K"><path d="M411.9 183.9c.4 22-4 43-11.4 63.6-6 16.6-14.6 31.6-25 45.7-11.2 15.3-22.5 30.5-33.6 45.8-22.9 31.4-45.7 62.8-68.5 94.3-4.6 6.4-8.8 13.1-13.6 19.4-13.8 18.1-38.4 18.1-51.7-.4-25.4-35.2-50.6-70.7-75.7-106.1-13.9-19.6-27.7-39.3-41.6-58.9-24.6-34.8-35.1-73.7-32.2-116 2.7-38.6 17.3-72.5 41.9-102.4 30.2-36.7 69.3-57.4 115.9-62.5C274.8 0 325.1 19 365 62.1c25.1 27.1 40.7 59.6 45.6 96.6.6 4.2 1 8.5 1.2 12.8.2 4.2.1 8.3.1 12.4m-177 83.4c43.9.1 80.3-39.6 79.8-80.7-.6-45-35.1-80.3-79.6-80.3-44.3 0-78.8 35.3-79.5 79.9-.7 41.4 35.9 81 79.3 81.1" class="st4"/><path d="M131.9 106.3h211v166.4h-211z" class="st4"/><path d="M211.6 149.5c9.9-12.1 19.7-24.3 29.6-36.4 9-11.1 18.1-22.2 27.1-33.3 2.8-3.5 6.3-5.3 10.9-5.2 10.3.1 20.7.1 31 0 5.6 0 9.8 2.1 12.2 7.1 2.4 5.1 1.2 9.7-2.4 13.9-22.1 25.8-44.1 51.7-66.1 77.5-.4.5-.8.9-1.4 1.7l1.8 2.7L326 283.4c1.5 2.2 2.8 4.9 3.2 7.5 1 7.1-4.6 13.3-11.8 13.4-10.6.1-21.3.1-31.9 0-4.7 0-8-2.5-10.6-6.3-13.1-19.6-26.3-39.3-39.4-58.9-6.1-9.1-12.2-18.1-18.4-27.5-3.5 3.7-6.4 6.8-6.3 12.6.4 22.1.2 44.2.2 66.3 0 9-4.8 13.9-13.7 13.9h-24.2c-8 0-13-5.1-13-13.1V87.8c0-8.2 5-13.1 13.2-13.1h24.9c7.8 0 12.9 5.1 12.9 12.9v61.9c0-.1.3 0 .5 0" class="st5"/></g></svg>