<svg xmlns="http://www.w3.org/2000/svg" xml:space="preserve" viewBox="0 0 469.3 469.4"><style>.st0{display:none}.st1{display:inline;fill:#26a8f7}.st2,.st3,.st4{display:inline;fill:#e8aa60}.st3,.st4{fill:#fff}.st4{fill:#4444ea}.st5{fill:#26a8f7}.st6{fill:#fff}.st7{display:none;fill:#fbfbfb}.st8{display:inline;fill:#9daad1}.st10,.st11,.st9{display:inline;fill:#ffaff4}.st10,.st11{fill:#d7a570}.st11{fill:#fbfbfb}.st13,.st14,.st15{display:inline;fill:#c250fe}.st14,.st15{fill:#bfde76}.st15{fill:#ff9e7b}.st16,.st17,.st18{display:inline;fill:#01c78a}.st17,.st18{fill:#86f1fb}.st18{fill:#ea3838}</style><g id="Capa_30"><path d="M411.2 184.9c.4 22-4 43-11.4 63.6-6 16.6-14.6 31.6-25 45.7-11.2 15.3-22.5 30.5-33.6 45.8-22.9 31.4-45.7 62.8-68.5 94.3-4.6 6.4-8.8 13.1-13.6 19.4-13.8 18.1-38.4 18.1-51.7-.4-25.4-35.2-50.6-70.7-75.7-106.1-13.9-19.6-27.7-39.3-41.6-58.9-24.6-34.8-35.1-73.7-32.2-116 2.7-38.6 17.3-72.5 41.9-102.4C130 33.2 169.1 12.5 215.7 7.4 274.1 1 324.4 20 364.3 63.1c25.1 27.1 40.7 59.6 45.6 96.6.6 4.2 1 8.5 1.2 12.8.2 4.2.1 8.3.1 12.4m-177 83.4c43.9.1 80.3-39.6 79.8-80.7-.6-45-35.1-80.3-79.6-80.3-44.3 0-78.8 35.3-79.5 79.9-.7 41.4 35.9 81 79.3 81.1" class="st5"/><path d="M131.2 105.6h211V272h-211z" class="st5"/><path d="M299.3 131.4c-4.8 2.7-9 5.1-13.3 7.5-7.4 4.1-14.1 1.1-16.2-7.4-1.4-5.8-2.9-11.6-4.1-17.4-1.1-4.9.8-9.4 5-11.8 12.2-7 24.5-13.9 36.8-20.6 1.5-.8 3.3-1.2 5-1.2q9.45-.15 18.9 0c6.1.1 10.4 4.5 10.6 10.9V93c0 57.3 0 114.7-.1 172 0 2.7-.8 5.6-2 7.9-1.7 3.2-4.8 4.6-8.3 4.6h-21.3c-6.8 0-11-4.4-11-11.6V131.4M199.5 120.6h-68.2c-7.9 0-11.9-4.1-11.9-11.9v-17c0-6.6 4.4-10.9 11.1-10.9h117.2c6.6 0 10.8 4.2 11 10.7.1 4.3 0 8.6 0 12.8 0 3.1-1.2 5.7-3 8.2-27.6 40.3-55.1 80.6-82.6 121-.7 1-1.4 2-2.4 3.5h77c8.1 0 12.1 4 12.1 12v17c0 6.4-4.4 10.8-10.9 10.8H121.7c-6.5 0-10.8-4.4-10.8-10.9 0-3.8.1-7.5 0-11.3-.1-3.3.9-6.1 2.8-8.8 26.3-38.4 52.6-76.9 78.9-115.3 2.2-3.1 4.4-6.2 6.9-9.9" class="st6"/></g></svg>