<svg xmlns="http://www.w3.org/2000/svg" xml:space="preserve" id="Capa_1" x="0" y="0" version="1.1" viewBox="0 0 520 520"><style>.st0{fill:#fff}.st1{fill:#070504}.st2{fill:#0a0605}.st4{fill:#d84554}</style><g id="Capa_3"><path d="M103.3 99.8h338.9v314.9H103.3z" class="st0"/><path d="M260.2 9.9c136.7.2 250 110.4 250 250.2 0 138.5-111.4 250.1-250 250.1C120 510.3 9.5 396.6 9.8 259.1 10.1 122 122.6 9.9 260.2 9.9m113.7 210.8v-4.3c-.2-9-4.1-13-12.9-13H136.4c-8.8 0-12.8 4.1-12.8 13V259c.1 40.6 16.1 73.7 47.4 99.5 1.3 1 3.4 1.7 3.2 4.2h-35.6c-9.7 0-14.8 3.8-15 11.2-.2 7.8 4.8 11.6 15.1 11.6H359c1.4 0 2.9 0 4.3-.1 5.9-.5 10.2-4.7 10.6-10.5.4-5.9-3.7-11.1-9.7-12.1-2.3-.4-4.7-.2-7.1-.2H321c21.1-15.5 35.3-34.3 44.6-56.9 11.3 0 22.2.2 33.1-.1 19-.5 35.4-13.1 41.3-31.4 5.8-17.7 0-37.8-14.6-49.2-15.7-12.1-32.7-13.3-51.5-4.3m-113.8-74.3c0-10.6-.4-21.3.1-31.9.4-8.4-5.9-13.5-11.4-13.5-6.2-.1-11.8 5.7-11.7 13.2.4 21.5.1 43 .2 64.5 0 8.5 4.1 13.2 11.2 13.3 7.4.1 11.5-4.7 11.6-13.7.1-10.6 0-21.3 0-31.9m-79.6 17.2c0 5.4-.1 10.9 0 16.3.2 7.6 4.7 12.3 11.6 12.1 6.6-.1 11-4.7 11.1-12 .1-10.8.1-21.7 0-32.5-.1-7.5-5-12.5-11.6-12.3-6.4.2-10.9 5-11.1 12.2-.1 5.3 0 10.8 0 16.2m113.8.1c0 5.7-.1 11.3 0 17 .2 6.8 4.6 11.2 10.9 11.4 6.7.2 11.6-4.3 11.7-11.3.2-11.3.2-22.6 0-34-.1-6.9-5.3-11.8-11.7-11.6-6.2.2-10.8 4.9-11 11.5-.1 5.6.1 11.3.1 17" class="st0"/><path d="M403.4 212.6c22.6-10.8 43-9.4 61.8 5.4 17.5 13.7 24.5 37.8 17.5 59.1-7.1 21.9-26.8 37-49.6 37.6-13.1.4-26.1.1-39.7.1-11.2 27-28.2 49.6-53.5 68.2h43.3c2.8 0 5.7-.2 8.5.2 7.2 1.2 12.1 7.5 11.6 14.5-.5 6.9-5.5 11.9-12.7 12.6-1.7.2-3.4.1-5.1.1H121.1c-12.4 0-18.4-4.6-18.1-13.9.2-8.9 6.3-13.4 18-13.5h42.8c.2-3-2.3-3.8-3.8-5-37.6-30.9-56.8-70.6-57-119.4v-51.2c0-10.8 4.8-15.6 15.4-15.6h269.5c10.5 0 15.2 4.8 15.5 15.6.1 1.4 0 2.8 0 5.2M280.5 379.3c.8 0 1.8.2 2.5 0 47.2-13.8 77.4-44.2 89.7-92 4.4-17.3 3.3-35 3.3-52.5v-15.2h-27.4c-3.1-.1-6.2-.3-9.4-.3H189c-19 0-38.1.2-57.1.2-1.1-.3-1.5.2-1.4 1.3-.1 12.8-.6 25.5-.2 38.3 1.4 51.7 25.1 89.7 71.6 112.4 25 12.1 51.5 15.1 78.6 7.8m120.8-91.9c10.7 0 20.3.1 29.9 0 14.6-.3 26.5-12.2 26.7-26.6.3-14.2-11.3-26.7-25.8-27.8-13.8-1.1-27.6 10.3-28.5 24.7-.5 9.6-1.1 19.2-2.3 29.7M266.9 123.5v38.3c0 10.8-5 16.6-13.9 16.5-8.5-.1-13.4-5.8-13.4-16 0-25.8.3-51.6-.2-77.4-.2-9 6.5-15.9 14-15.8 6.6.1 14.1 6.1 13.6 16.2-.6 12.6-.1 25.4-.1 38.2" class="st1"/><path d="M171.3 144.1c0-6.5-.1-13 0-19.5.2-8.6 5.5-14.4 13.3-14.6 8-.2 13.9 5.8 14 14.8.2 13 .2 26 0 39.1-.1 8.7-5.4 14.2-13.3 14.4-8.3.2-13.7-5.4-13.9-14.6-.2-6.6-.1-13.1-.1-19.6M307.8 144.2c0-6.8-.2-13.6 0-20.4.3-8 5.8-13.6 13.2-13.8 7.7-.2 13.9 5.5 14 13.9.2 13.6.3 27.2 0 40.8-.2 8.4-6.1 13.8-14.1 13.6-7.6-.2-12.9-5.5-13.1-13.7-.1-6.9 0-13.7 0-20.4" class="st2"/><path d="M132.1 219.5c19-.1 38.1-.2 57.1-.2h150.2c3.1 0 6.2.2 9.4.3 0 8.5-.2 17.1.1 25.6.9 22.9-1.5 45.2-10.2 66.5-7.9 19.4-19.6 36-35.5 50-7.2 6.4-15.4 11.3-22.6 17.6-27.2 7.3-53.6 4.3-78.5-7.8-46.5-22.7-70.2-60.7-71.6-112.4-.3-12.7.1-25.5.2-38.3.4-.4.9-.8 1.4-1.3" style="fill:#ea5666"/><path d="M280.5 379.3c7.2-6.3 15.4-11.2 22.6-17.6 15.9-13.9 27.5-30.6 35.5-50 8.7-21.3 11.1-43.7 10.2-66.5-.3-8.5-.1-17.1-.1-25.6h27.4v15.2c-.1 17.6 1.1 35.3-3.3 52.5-12.3 47.8-42.5 78.2-89.7 92-.8.3-1.7 0-2.6 0M147.8 226.5c-.4.4-.8.7-1.2 1.1-.1-1 .2-1.4 1.2-1.1" class="st4"/></g></svg>