<svg xmlns="http://www.w3.org/2000/svg" xml:space="preserve" viewBox="0 0 469.3 469.4"><style>.st1{fill:#26a8f7}.st1,.st2{display:inline}.st3{fill:#26a8f7}.st4{display:none;fill:#fff}</style><g id="Capa_3"><path d="M412.2 184.5c.4 22-4 43-11.4 63.6-6 16.6-14.6 31.6-25 45.7-11.2 15.3-22.5 30.5-33.6 45.8-22.9 31.4-45.7 62.8-68.5 94.3-4.6 6.4-8.8 13.1-13.6 19.4-13.8 18.1-38.4 18.1-51.7-.4-25.4-35.2-50.6-70.7-75.7-106.1-13.9-19.6-27.7-39.3-41.6-58.9-24.6-34.8-35.1-73.7-32.2-116 2.7-38.6 17.3-72.5 41.9-102.4C131 32.8 170.1 12.1 216.7 7 275.1.6 325.4 19.6 365.3 62.7c25.1 27.1 40.7 59.6 45.6 96.6.6 4.2 1 8.5 1.2 12.8.2 4.2.1 8.3.1 12.4m-177 83.4c43.9.1 80.3-39.6 79.8-80.7-.6-45-35.1-80.3-79.6-80.3-44.3 0-78.8 35.3-79.5 79.9-.7 41.4 35.9 81 79.3 81.1" class="st3"/><path d="M132.2 106.9h211v166.4h-211z" class="st3"/><path d="M221.3 241.5v78.3c0 10.7-5.4 16.3-15.8 16.4-9.2 0-18.4.1-27.7 0-9.7-.1-15.4-5.9-15.4-15.8V84.5c0-9.1 4.8-14.5 13.6-15.9 23.1-3.7 46.3-5.2 69.6-4.2 20.1.9 39.4 4.9 56.6 16.3 20.4 13.6 31.3 33.2 34 57.7 2 18.3-.1 36.1-8.2 52.8-10.5 21.6-28 35-49.8 42.9-16.8 6.1-34.2 7.9-52 7.5-1.5-.1-2.9-.1-4.9-.1m.1-54.3c11.8 1 23.2.8 34.2-3 11.7-4 19.2-12.1 21.2-24.7.8-5 .8-10.3.4-15.4-.9-10.2-6.2-17.7-15.5-21.5-5.4-2.2-11.3-3.8-17-4.3-7.7-.7-15.5-.2-23.3-.2z" style="fill:#fff"/></g></svg>