<svg xmlns="http://www.w3.org/2000/svg" xml:space="preserve" viewBox="0 0 469.3 469.4"><style>.st0{display:none}.st1{display:inline;fill:#26a8f7}.st2,.st3,.st4{display:inline;fill:#e8aa60}.st3,.st4{fill:#fff}.st4{fill:#4444ea}.st5{fill:#26a8f7}.st6{fill:#fff}.st7{display:inline;fill:#9daad1}.st10,.st8,.st9{display:inline;fill:#ffaff4}.st10,.st9{fill:#d7a570}.st10{fill:#fbfbfb}.st12,.st13,.st14{display:inline;fill:#c250fe}.st13,.st14{fill:#bfde76}.st14{fill:#ff9e7b}.st15,.st16,.st17{display:inline;fill:#01c78a}.st16,.st17{fill:#86f1fb}.st17{fill:#ea3838}</style><g id="RU"><path d="M411.2 184.9c.4 22-4 43-11.4 63.6-6 16.6-14.6 31.6-25 45.7-11.2 15.3-22.5 30.5-33.6 45.8-22.9 31.4-45.7 62.8-68.5 94.3-4.6 6.4-8.8 13.1-13.6 19.4-13.8 18.1-38.4 18.1-51.7-.4-25.4-35.2-50.6-70.7-75.7-106.1-13.9-19.6-27.7-39.3-41.6-58.9-24.6-34.8-35.1-73.7-32.2-116 2.7-38.6 17.3-72.5 41.9-102.4C130 33.2 169.1 12.5 215.7 7.4 274.1 1 324.4 20 364.3 63.1c25.1 27.1 40.7 59.6 45.6 96.6.6 4.2 1 8.5 1.2 12.8.2 4.2.1 8.3.1 12.4m-177 83.4c43.9.1 80.3-39.6 79.8-80.7-.6-45-35.1-80.3-79.6-80.3-44.3 0-78.8 35.3-79.5 79.9-.7 41.4 35.9 81 79.3 81.1" class="st5"/><path d="M131.2 107.3h211v166.4h-211z" class="st5"/><path d="M202.2 182.3c10.8 11.2 13.5 25.7 16.9 39.9 2.1 8.8 4.7 17.6 7.1 26.3.5 1.7 1.3 3.2 1.9 4.8 2.6 6.4-1.4 13.1-8.3 13.3-7.3.2-14.6.1-21.8 0-3.8 0-6.9-1.9-8.2-5.4-2.5-6.8-4.8-13.7-6.7-20.7-2.2-7.8-3.8-15.8-5.7-23.7-.1-.6-.3-1.2-.5-1.8-3.7-12.9-9.2-17-22.6-17.1-1.9 0-3.8.1-5.7 0-2-.2-2.5.5-2.5 2.5.1 17.7-.2 35.5.2 53.2.2 9.8-4.2 13.7-13.1 13.2-5.4-.3-10.8 0-16.1-.1-6.5-.1-10.3-3.9-10.3-10.4V101.5c0-5.8 2.8-9.4 8.6-10.4 21.4-3.6 42.9-5.1 64.4-1.2 15.5 2.8 28.5 10 36.8 23.9 11.5 19.4 9.7 49.5-12.3 66.8-.8.6-1.3 1.1-2.1 1.7m-56-18.4c7.1-.5 14-.4 20.7-1.5 9.9-1.7 15.7-8.1 16.8-17.3 1.1-9.1-2.4-16.1-10.2-19.4-8.8-3.8-18-3.2-27.4-2.5.1 13.3.1 26.6.1 40.7M325.8 150.4c0-15.6.2-31.1-.1-46.7-.2-9.1 4.4-12.6 10.9-12.1 5 .4 10 .1 15 .1 5.5 0 9 3.7 9 9.9 0 31 .1 62.1-.1 93.1-.1 15.1-2.6 29.6-9.6 42.8-8.3 16-21.2 25.1-37.4 28.3-12.1 2.4-24.2 2-36-2.5-16.1-6.2-26.2-19.2-31.7-36.7-3.2-10.2-4.6-20.6-4.7-31.3-.1-31.3-.1-62.5-.1-93.8 0-6.1 3.5-9.8 8.8-9.8h16.7c5.9 0 9.2 3.7 9.3 10.3v89.2c0 8.4.6 16.7 3.2 24.5 2.9 8.6 7.9 14.8 16.4 16.2 8.7 1.5 16.7.2 22.7-7.9 4.3-5.7 5.9-12.7 6.7-19.9.5-4.8.7-9.7.7-14.5.4-13 .3-26.1.3-39.2" class="st6"/></g></svg>