<svg xmlns="http://www.w3.org/2000/svg" xml:space="preserve" viewBox="0 0 469.3 469.4"><style>.st0{display:none}.st1{display:inline;fill:#26a8f7}.st2,.st3,.st4{display:inline;fill:#9daad1}.st3,.st4{fill:#fbfbfb}.st4{fill:#fff}.st6{fill:#9daad1}.st7{fill:#fff}.st8{display:inline;fill:#c250fe}.st10,.st11,.st9{display:inline;fill:#bfde76}.st10,.st11{fill:#ff9e7b}.st11{fill:#01c78a}.st12,.st13,.st14{display:inline;fill:#86f1fb}.st13,.st14{fill:#ea3838}.st14{fill:#d7a570}</style><g id="R"><path d="M412.9 184.9c.4 22-4 43-11.4 63.6-6 16.6-14.6 31.6-25 45.7-11.2 15.3-22.5 30.5-33.6 45.8-22.9 31.4-45.7 62.8-68.5 94.3-4.6 6.4-8.8 13.1-13.6 19.4-13.8 18.1-38.4 18.1-51.7-.4-25.4-35.2-50.6-70.7-75.7-106.1-13.9-19.6-27.7-39.3-41.6-58.9-24.6-34.8-35.1-73.7-32.2-116 2.7-38.6 17.3-72.5 41.9-102.4 30.2-36.7 69.3-57.4 115.9-62.5C275.8 1 326.1 20 366 63.1c25.1 27.1 40.7 59.6 45.6 96.6.6 4.2 1 8.5 1.2 12.8.2 4.2.1 8.3.1 12.4m-177 83.4c43.9.1 80.3-39.6 79.8-80.7-.6-45-35.1-80.3-79.6-80.3-44.3 0-78.8 35.3-79.5 79.9-.7 41.4 35.9 81 79.3 81.1" class="st6"/><path d="M132.9 107.3h211v166.4h-211z" class="st6"/><path d="M292.3 196.3c15.3 15.9 19.1 36.5 24 56.7 3 12.5 6.6 24.9 10.1 37.3.7 2.4 1.8 4.6 2.7 6.9 3.7 9-2 18.5-11.7 18.8-10.3.3-20.7.1-31 0-5.4-.1-9.8-2.6-11.7-7.6-3.6-9.6-6.8-19.4-9.6-29.3-3.1-11.1-5.5-22.4-8.1-33.7-.2-.9-.5-1.7-.7-2.6-5.3-18.3-13-24.1-32-24.2-2.7 0-5.4.2-8.1 0-2.8-.2-3.6.7-3.6 3.5.1 25.1-.3 50.3.2 75.4.3 13.8-5.9 19.5-18.6 18.7-7.6-.5-15.3 0-22.9-.1-9.2-.1-14.6-5.5-14.6-14.7V81.8c0-8.3 4-13.3 12.2-14.7 30.4-5.1 60.9-7.2 91.4-1.7 22 3.9 40.4 14.1 52.2 33.9 16.3 27.5 13.8 70.2-17.5 94.8-.9.6-1.7 1.3-2.7 2.2m-79.5-26.1c10.1-.7 19.9-.6 29.4-2.2 14.1-2.4 22.2-11.5 23.9-24.6 1.6-12.9-3.5-22.8-14.5-27.5-12.5-5.3-25.6-4.6-38.8-3.6z" class="st7"/></g></svg>