<svg xmlns="http://www.w3.org/2000/svg" xml:space="preserve" viewBox="0 0 469.3 469.4"><style>.st0{display:none}.st1{display:inline;fill:#26a8f7}.st2{fill:#ffaff4}.st3{fill:#fff}.st4{display:inline;fill:#d7a570}.st5,.st6,.st7{display:inline;fill:#fff}.st6,.st7{fill:#9daad1}.st7{fill:#fbfbfb}.st10,.st11,.st9{display:inline;fill:#c250fe}.st10,.st11{fill:#bfde76}.st11{fill:#ff9e7b}.st12,.st13,.st14{display:inline;fill:#01c78a}.st13,.st14{fill:#86f1fb}.st14{fill:#ea3838}</style><g id="O"><path d="M412.5 184.5c.4 22-4 43-11.4 63.6-6 16.6-14.6 31.6-25 45.7-11.2 15.3-22.5 30.5-33.6 45.8-22.9 31.4-45.7 62.8-68.5 94.3-4.6 6.4-8.8 13.1-13.6 19.4-13.8 18.1-38.4 18.1-51.7-.4-25.4-35.2-50.6-70.7-75.7-106.1-13.9-19.6-27.7-39.3-41.6-58.9-24.6-34.8-35.1-73.7-32.2-116 2.7-38.6 17.3-72.5 41.9-102.4C131.3 32.8 170.4 12.1 217 7 275.4.6 325.7 19.6 365.6 62.7c25.1 27.1 40.7 59.6 45.6 96.6.6 4.2 1 8.5 1.2 12.8.2 4.2.1 8.3.1 12.4m-177 83.4c43.9.1 80.3-39.6 79.8-80.7-.6-45-35.1-80.3-79.6-80.3-44.3 0-78.8 35.3-79.5 79.9-.7 41.4 35.9 81 79.3 81.1" class="st2"/><path d="M132.5 106.9h211v166.4h-211z" class="st2"/><path d="M342 182.5c-.3 22.7-3.5 43.5-13.1 62.9-15.8 31.9-41.5 50.6-76.5 56.5-21.3 3.6-42 1.4-61.8-7.7-25.1-11.5-41.8-30.9-51.8-56.4-8.5-21.7-10.6-44.2-8.2-67.2 2.2-21.7 8.6-42 21.2-60 17.4-24.8 41.4-39 71.4-42.7 23.4-2.9 45.7.7 66.3 12.7 22.3 13 36.6 32.5 45 56.6 5.4 15 7.5 30.7 7.5 45.3m-52.6.4c-.2-2.4-.3-6.5-.8-10.6-1.7-14.5-5.8-28.2-14.7-40.1-12.3-16.5-32.1-23-51.8-17.2-15.1 4.4-24.6 14.8-30.9 28.6-6.4 13.8-8.6 28.5-8.5 43.6.2 16.6 3.5 32.5 12.5 46.8 11.3 18 28.9 26 49.8 22.4 15.3-2.6 25.9-11.9 33.3-25.1 8.1-14.6 10.9-30.4 11.1-48.4" class="st3"/></g></svg>