<svg xmlns="http://www.w3.org/2000/svg" xml:space="preserve" viewBox="0 0 469.3 469.4"><style>.st0{display:none}.st1,.st2,.st3{display:inline;fill:#26a8f7}.st2,.st3{fill:#ff9e7b}.st3{fill:#fff}.st4,.st5,.st6{display:inline;fill:#01c78a}.st5,.st6{fill:#86f1fb}.st6{fill:#ea3838}.st8{fill:#d7a570}.st9{fill:#fff}.st10{display:none;fill:#fbfbfb}.st11{display:inline;fill:#d7a570}</style><g id="u"><path d="M411.5 184.6c.4 22-4 43-11.4 63.6-6 16.6-14.6 31.6-25 45.7-11.2 15.3-22.5 30.5-33.6 45.8-22.9 31.4-45.7 62.8-68.5 94.3-4.6 6.4-8.8 13.1-13.6 19.4-13.8 18.1-38.4 18.1-51.7-.4-25.4-35.2-50.6-70.7-75.7-106.1-13.9-19.6-27.7-39.3-41.6-58.9-24.6-34.8-35.1-73.7-32.2-116 2.7-38.6 17.3-72.5 41.9-102.4C130.3 32.9 169.4 12.2 216 7.1 274.4.7 324.7 19.7 364.6 62.8c25.1 27.1 40.7 59.6 45.6 96.6.6 4.2 1 8.5 1.2 12.8.2 4.2.1 8.3.1 12.4m-177 83.4c43.9.1 80.3-39.6 79.8-80.7-.6-45-35.1-80.3-79.6-80.3-44.3 0-78.8 35.3-79.5 79.9-.7 41.4 35.9 81 79.3 81.1" class="st8"/><path d="M131.5 105.3h211v166.4h-211z" class="st8"/><path d="M275.9 161.8c0-22.1.4-44.1-.1-66.2-.3-12.9 7.4-17.8 18.3-17.2 8.4.5 16.9.1 25.2.1 9.3 0 15.1 5.3 15.1 14 0 44 .1 88.1-.1 132.1-.1 21.4-4.5 42-16.1 60.7-14 22.7-35.6 35.6-62.9 40.2-20.4 3.4-40.7 2.9-60.6-3.5-27.1-8.8-44-27.2-53.3-52.1-5.4-14.4-7.7-29.2-7.8-44.4-.1-44.4-.1-88.7-.1-133.1 0-8.6 5.8-13.9 14.8-13.9h28.1c10 0 15.5 5.2 15.6 14.7v126.5c0 11.9.9 23.6 5.4 34.8 4.9 12.1 13.2 21 27.5 23 14.6 2.1 28.1.3 38.2-11.2 7.1-8.1 10-17.9 11.3-28.2.8-6.8 1.2-13.8 1.2-20.6.4-18.6.3-37.1.3-55.7" class="st9"/></g></svg>