<svg xmlns="http://www.w3.org/2000/svg" xml:space="preserve" viewBox="0 0 469.3 469.4"><style>.st0{display:none}.st1,.st2,.st3{display:inline;fill:#26a8f7}.st2,.st3{fill:#d7a570}.st3{fill:#fff}.st4{fill:#d7a570}.st5{fill:#fff}.st6,.st7{display:inline;fill:#9daad1}.st7{fill:#fbfbfb}.st10,.st11,.st9{display:inline;fill:#c250fe}.st10,.st11{fill:#bfde76}.st11{fill:#ff9e7b}.st12,.st13,.st14{display:inline;fill:#01c78a}.st13,.st14{fill:#86f1fb}.st14{fill:#ea3838}</style><g id="T"><path d="M412.2 183.9c.4 22-4 43-11.4 63.6-6 16.6-14.6 31.6-25 45.7-11.2 15.3-22.5 30.5-33.6 45.8-22.9 31.4-45.7 62.8-68.5 94.3-4.6 6.4-8.8 13.1-13.6 19.4-13.8 18.1-38.4 18.1-51.7-.4-25.4-35.2-50.6-70.7-75.7-106.1-13.9-19.6-27.7-39.3-41.6-58.9-24.6-34.8-35.1-73.7-32.2-116 2.7-38.6 17.3-72.5 41.9-102.4C131 32.2 170.1 11.5 216.7 6.4 275.1 0 325.4 19 365.3 62.1c25.1 27.1 40.7 59.6 45.6 96.6.6 4.2 1 8.5 1.2 12.8.2 4.2.1 8.3.1 12.4m-177 83.4c43.9.1 80.3-39.6 79.8-80.7-.6-45-35.1-80.3-79.6-80.3-44.3 0-78.8 35.3-79.5 79.9-.7 41.4 35.9 81 79.3 81.1" class="st4"/><path d="M132.2 106.3h211v166.4h-211z" class="st4"/><path d="M209.4 132h-53.1c-10.1 0-15.4-5.3-15.4-15.3V94.8c.1-8.9 5.6-14.4 14.6-14.4h164.7c8.9 0 14.4 5.5 14.5 14.5.1 7.5.1 15 0 22.6-.1 8.9-5.6 14.5-14.5 14.5-16.6.1-33.2 0-49.8 0H266v184.7c0 8.3-3.3 14.5-10 15-12 .9-24.2.8-36.2.1-6.4-.4-10.1-6.6-10.1-13.6V136c-.3-1.2-.3-2.4-.3-4" class="st5"/></g></svg>