<svg xmlns="http://www.w3.org/2000/svg" xml:space="preserve" viewBox="0 0 469.3 469.4"><style>.st0{display:none}.st1{display:inline;fill:#26a8f7}.st2{fill:#bfde76}.st3{fill:#fff}.st4{display:inline;fill:#ff9e7b}.st5,.st6,.st7{display:inline;fill:#fff}.st6,.st7{fill:#01c78a}.st7{fill:#86f1fb}.st8{fill:#ea3838}.st9{fill:#fbfbfb}.st10{display:inline;fill:#d7a570}</style><g id="Capa_9"><path d="M412.3 184.5c.4 22-4 43-11.4 63.6-6 16.6-14.6 31.6-25 45.7-11.2 15.3-22.5 30.5-33.6 45.8-22.9 31.4-45.7 62.8-68.5 94.3-4.6 6.4-8.8 13.1-13.6 19.4-13.8 18.1-38.4 18.1-51.7-.4-25.4-35.2-50.6-70.7-75.7-106.1-13.9-19.6-27.7-39.3-41.6-58.9-24.6-34.8-35.1-73.7-32.2-116 2.7-38.6 17.3-72.5 41.9-102.4C131.1 32.8 170.2 12.1 216.8 7 275.2.6 325.5 19.6 365.4 62.7c25.1 27.1 40.7 59.6 45.6 96.6.6 4.2 1 8.5 1.2 12.8.2 4.2.1 8.3.1 12.4m-177 83.4c43.9.1 80.3-39.6 79.8-80.7-.6-45-35.1-80.3-79.6-80.3-44.3 0-78.8 35.3-79.5 79.9-.7 41.4 35.9 81 79.3 81.1" class="st2"/><path d="M132.3 106.9h211v166.4h-211z" class="st2"/><path d="M145.2 188.1V86.3c0-10 3.5-14 13.4-15.5 21-3.1 42.2-4.6 63.4-4.2 21 .5 41.7 3.1 61.1 11.7 32 14.3 51.6 39 58.8 73 6.5 30.9 4.2 61.2-8.8 90.2-13.3 29.6-36.1 48.6-66.9 58.3-24.1 7.7-48.9 9.1-73.9 8-11.4-.5-22.9-1.4-34.3-2.2-8.2-.6-12.8-5.6-12.9-14 .1-34.3.1-68.9.1-103.5m53.1 72.3c12.8.4 25.2.7 37.4-1.7 24.6-4.9 42.5-18.2 50.5-42.6 6-18.5 6.7-37.5 2.2-56.5-4.9-20.7-17.9-34.4-38.2-41.1-10.4-3.4-21.1-4.6-32-4.6-6.6 0-13.3.5-20 .7.1 48.8.1 97.1.1 145.8" class="st3"/></g><g id="A"><path d="M411.6 184.9c.4 22-4 43-11.4 63.6-6 16.6-14.6 31.6-25 45.7-11.2 15.3-22.5 30.5-33.6 45.8-22.9 31.4-45.7 62.8-68.5 94.3-4.6 6.4-8.8 13.1-13.6 19.4-13.8 18.1-38.4 18.1-51.7-.4-25.4-35.2-50.6-70.7-75.7-106.1-13.9-19.6-27.7-39.3-41.6-58.9-24.6-34.8-35.1-73.7-32.2-116 2.7-38.6 17.3-72.5 41.9-102.4 30.2-36.7 69.3-57.4 115.9-62.5C274.5 1 324.8 20 364.7 63.1c25.1 27.1 40.7 59.6 45.6 96.6.6 4.2 1 8.5 1.2 12.8.2 4.2.1 8.3.1 12.4m-177 83.4c43.9.1 80.3-39.6 79.8-80.7-.6-45-35.1-80.3-79.6-80.3-44.3 0-78.8 35.3-79.5 79.9-.7 41.4 35.9 81 79.3 81.1" class="st8"/><path d="M131.6 107.3h211v166.4h-211z" class="st8"/><path d="M317.9 303.4h-14.5c-7.5 0-11.9-3.2-14.4-10.3-6.5-19.1-13-38.2-19.4-57.3-.8-2.4-1.8-3.3-4.4-3.2-18.1.1-36.2.1-54.2 0-2.4 0-3.3.8-4 2.9-6.1 18.8-12.3 37.5-18.5 56.2-2.9 8.9-6.8 11.7-16.4 11.7h-25.9c-11.2 0-17.3-8.4-13.7-19 19.2-56.7 38.5-113.4 57.7-170C196.1 97 202 79.6 208 62.2c2.7-7.9 6.9-10.9 15.3-10.9H254c9.3 0 13.1 2.7 16.1 11.6C295 136 320 209.1 344.9 282.2c1.2 3.6 2.7 7.1 1.6 11.1-1.7 6-6.5 10-12.7 10.1-5.3.1-10.6 0-15.9 0m-94.6-120.9h30c-5-14.7-9.9-29-15-44.1-5.3 15.3-10.1 29.6-15 44.1" class="st9"/></g></svg>