<svg xmlns="http://www.w3.org/2000/svg" xml:space="preserve" viewBox="0 0 469.3 469.4"><style>.st0{display:none}.st1{display:inline;fill:#26a8f7}.st2{fill:#c250fe}.st3{fill:#fff}.st4{display:inline;fill:#bfde76}.st5,.st6,.st7{display:inline;fill:#fff}.st6,.st7{fill:#ff9e7b}.st7{fill:#01c78a}.st11,.st8,.st9{display:inline;fill:#86f1fb}.st11,.st9{fill:#ea3838}.st11{fill:#d7a570}</style><g id="W"><path d="M412.5 184.4c.4 22-4 43-11.4 63.6-6 16.6-14.6 31.6-25 45.7-11.2 15.3-22.5 30.5-33.6 45.8-22.9 31.4-45.7 62.8-68.5 94.3-4.6 6.4-8.8 13.1-13.6 19.4-13.8 18.1-38.4 18.1-51.7-.4-25.4-35.2-50.6-70.7-75.7-106.1-13.9-19.6-27.7-39.3-41.6-58.9-24.6-34.8-35.1-73.7-32.2-116 2.7-38.6 17.3-72.5 41.9-102.4C131.3 32.7 170.4 12 217 6.9 275.4.5 325.7 19.5 365.6 62.6c25.1 27.1 40.7 59.6 45.6 96.6.6 4.2 1 8.5 1.2 12.8.2 4.2.1 8.3.1 12.4m-177 83.4c43.9.1 80.3-39.6 79.8-80.7-.6-45-35.1-80.3-79.6-80.3-44.3 0-78.8 35.3-79.5 79.9-.7 41.4 35.9 81 79.3 81.1" class="st2"/><path d="M118.7 104.1h211v166.4h-211z" class="st2"/><path d="M185.8 220.3c5.1-19.1 10-37.6 14.9-56.1l14.1-53.4c1.7-6.6 5.5-9.5 12.3-9.5h23.3c6.5 0 10.5 3.2 12 9.5 7 29 13.9 58 20.8 86.9 1.6 6.6 3.1 13.2 4.9 20.6.5-1.6.8-2.5 1.1-3.3 9-34.7 18.1-69.4 27.1-104.1 1.8-6.8 5.5-9.7 12.5-9.7h21.9c9.7 0 14.6 6.5 12 15.7-13 45.7-25.9 91.5-38.9 137.2l-13.5 47.7c-1.9 6.6-5.6 9.4-12.4 9.4h-22.7c-7 0-10.9-3.1-12.6-10-8.2-34-16.5-68.1-24.7-102.1-.3-1.1-.5-2.2-1.3-3.4-.3 1-.7 2.1-1 3.1-9.4 34.1-18.7 68.3-28.1 102.4-2 7.2-5.5 10-13.1 10h-22.2c-7 0-10.8-2.9-12.5-9.6-13.1-51.4-26.1-102.8-39.2-154.3-2.7-10.6-5.4-21.2-8-31.8-1.9-7.9 3.1-14.3 11.2-14.3H147c7.8 0 11.5 2.9 13.2 10.5 8.2 35.2 16.5 70.4 24.7 105.6.3 1 .5 1.7.9 3" class="st3"/></g></svg>